{"glyphs":{"0":{"ha":792,"x_min":0,"x_max":0,"o":"m 64 660 b 396 972 64 853 223 972 b 728 660 569 972 728 853 l 728 298 b 396 -19 728 104 570 -19 b 64 298 221 -19 64 104 m 556 660 b 396 827 556 770 480 827 b 237 660 312 827 237 770 l 237 298 b 396 125 237 187 312 125 b 556 298 480 125 556 187 "},"1":{"ha":478,"x_min":0,"x_max":0,"o":"m 213 0 l 213 792 l 39 765 l 14 907 l 280 949 l 386 949 l 386 0 "},"2":{"ha":731,"x_min":0,"x_max":0,"o":"m 46 898 b 367 972 126 934 272 972 b 676 679 578 972 676 853 b 568 468 676 590 644 522 b 263 283 484 408 318 367 b 230 151 240 248 234 219 l 677 151 l 677 0 l 47 0 b 113 366 46 216 53 275 b 445 581 195 489 354 522 b 496 679 478 603 496 638 b 367 821 496 771 457 821 b 89 746 297 821 176 785 "},"3":{"ha":769,"x_min":0,"x_max":0,"o":"m 46 909 b 359 972 149 942 262 972 b 688 691 590 972 688 877 b 612 496 688 605 664 541 b 706 273 682 444 706 362 b 360 -18 706 26 552 -18 b 37 40 262 -18 176 -3 l 79 189 b 360 132 216 148 284 132 b 526 273 463 132 526 150 b 417 417 526 352 494 417 l 119 417 l 119 568 l 419 568 b 509 691 479 568 509 613 b 359 821 509 784 464 821 b 72 753 284 821 184 798 "},"4":{"ha":797,"x_min":0,"x_max":0,"o":"m 241 317 l 456 317 l 456 465 l 484 581 l 636 581 l 636 317 l 758 317 l 758 165 l 636 165 l 636 0 l 456 0 l 456 165 l 34 165 l 34 261 l 283 965 l 453 910 "},"5":{"ha":722,"x_min":0,"x_max":0,"o":"m 277 803 l 269 598 b 377 604 317 602 337 604 b 673 291 561 604 673 524 b 335 -20 673 3 507 -20 b 50 33 284 -20 211 -20 l 92 175 b 335 125 241 125 291 125 b 500 292 432 125 500 136 b 362 459 500 423 448 459 b 317 460 346 460 331 460 b 92 455 241 460 177 458 l 109 949 l 627 949 l 627 803 "},"6":{"ha":774,"x_min":0,"x_max":0,"o":"m 64 625 b 417 972 64 837 204 972 b 694 898 524 972 632 925 l 633 759 b 417 827 557 795 486 827 b 237 625 301 827 238 748 l 237 595 b 422 625 301 612 364 625 b 728 375 591 625 728 545 l 728 270 b 407 -19 728 37 548 -19 b 64 270 201 -19 64 97 m 556 375 b 422 481 556 453 503 481 b 237 456 360 481 302 470 l 237 270 b 407 125 237 178 302 125 b 556 270 478 125 556 149 "},"7":{"ha":704,"x_min":0,"x_max":0,"o":"m 673 839 b 354 191 517 715 354 491 l 354 0 l 181 0 l 181 191 b 414 804 181 456 288 659 l 29 804 l 29 949 l 673 949 "},"8":{"ha":822,"x_min":0,"x_max":0,"o":"m 64 325 b 171 501 64 412 107 479 b 73 691 109 526 73 586 b 411 972 73 898 235 972 b 749 691 588 972 749 898 b 652 501 749 586 714 526 b 759 325 716 479 759 412 l 759 250 b 411 -18 759 65 595 -18 b 64 250 228 -18 64 65 m 476 578 b 570 691 525 578 570 605 b 411 820 570 790 504 820 b 254 691 321 820 254 790 b 350 578 254 605 299 578 m 340 425 b 245 325 289 425 245 386 l 245 250 b 411 133 245 166 316 133 b 579 250 509 133 579 166 l 579 325 b 485 425 579 385 537 425 "},"9":{"ha":779,"x_min":0,"x_max":0,"o":"m 52 683 b 373 972 52 916 232 972 b 716 683 579 972 716 856 l 716 328 b 363 -19 716 116 576 -19 b 86 55 256 -19 148 28 l 147 193 b 363 126 223 158 285 126 b 543 326 478 126 542 203 l 543 357 b 358 327 479 341 416 327 b 52 578 189 327 52 408 m 543 683 b 373 828 543 775 478 828 b 224 683 302 828 224 804 l 224 578 b 358 471 224 500 277 471 b 543 497 420 471 478 482 "},"A":{"ha":924,"x_min":0,"x_max":0,"o":"m 699 0 l 626 197 l 297 197 l 227 0 l 38 0 l 391 972 l 534 972 l 886 0 m 588 333 l 461 703 l 333 333 "},"Á":{"ha":924,"x_min":0,"x_max":0,"o":"m 314 1153 l 446 1319 l 610 1319 l 444 1153 m 699 0 l 626 197 l 297 197 l 227 0 l 38 0 l 391 972 l 534 972 l 886 0 m 588 333 l 461 703 l 333 333 "},"Ă":{"ha":924,"x_min":0,"x_max":0,"o":"m 665 1319 b 475 1132 665 1185 577 1132 l 450 1132 b 260 1319 347 1132 260 1185 l 379 1319 b 450 1240 379 1264 418 1240 l 475 1240 b 545 1319 506 1240 545 1264 m 699 0 l 626 197 l 297 197 l 227 0 l 38 0 l 391 972 l 534 972 l 886 0 m 588 333 l 461 703 l 333 333 "},"Ǎ":{"ha":924,"x_min":0,"x_max":0,"o":"m 423 1153 l 291 1319 l 410 1319 l 462 1267 l 514 1319 l 634 1319 l 502 1153 m 699 0 l 626 197 l 297 197 l 227 0 l 38 0 l 391 972 l 534 972 l 886 0 m 588 333 l 461 703 l 333 333 "},"Â":{"ha":924,"x_min":0,"x_max":0,"o":"m 514 1153 l 462 1206 l 410 1153 l 291 1153 l 423 1319 l 501 1319 l 634 1153 m 699 0 l 626 197 l 297 197 l 227 0 l 38 0 l 391 972 l 534 972 l 886 0 m 588 333 l 461 703 l 333 333 "},"Ậ":{"ha":924,"x_min":0,"x_max":0,"o":"m 514 1153 l 462 1206 l 410 1153 l 291 1153 l 423 1319 l 501 1319 l 634 1153 m 699 0 l 626 197 l 297 197 l 227 0 l 38 0 l 391 972 l 534 972 l 886 0 m 588 333 l 461 703 l 333 333 m 394 -250 l 394 -114 l 531 -114 l 531 -250 "},"Ä":{"ha":924,"x_min":0,"x_max":0,"o":"m 286 1166 l 286 1302 l 423 1302 l 423 1166 m 502 1166 l 502 1302 l 638 1302 l 638 1166 m 699 0 l 626 197 l 297 197 l 227 0 l 38 0 l 391 972 l 534 972 l 886 0 m 588 333 l 461 703 l 333 333 "},"Ǟ":{"ha":924,"x_min":0,"x_max":0,"o":"m 244 1272 l 244 1407 l 681 1407 l 681 1272 m 286 1073 l 286 1209 l 423 1209 l 423 1073 m 502 1073 l 502 1209 l 638 1209 l 638 1073 m 699 0 l 626 197 l 297 197 l 227 0 l 38 0 l 391 972 l 534 972 l 886 0 m 588 333 l 461 703 l 333 333 "},"À":{"ha":924,"x_min":0,"x_max":0,"o":"m 482 1153 l 314 1319 l 478 1319 l 611 1153 m 699 0 l 626 197 l 297 197 l 227 0 l 38 0 l 391 972 l 534 972 l 886 0 m 588 333 l 461 703 l 333 333 "},"Ā":{"ha":924,"x_min":0,"x_max":0,"o":"m 244 1166 l 244 1302 l 681 1302 l 681 1166 m 699 0 l 626 197 l 297 197 l 227 0 l 38 0 l 391 972 l 534 972 l 886 0 m 588 333 l 461 703 l 333 333 "},"Ą":{"ha":924,"x_min":0,"x_max":0,"o":"m 783 0 b 709 -40 718 0 709 -18 b 875 -147 709 -119 737 -147 l 875 -232 b 622 -60 664 -232 622 -185 b 689 28 622 -11 636 16 l 626 197 l 297 197 l 227 0 l 38 0 l 391 972 l 534 972 l 886 0 m 588 333 l 461 703 l 333 333 "},"Å":{"ha":924,"x_min":0,"x_max":0,"o":"m 462 1330 b 620 1171 551 1330 620 1258 b 462 1014 620 1083 551 1014 b 305 1171 373 1014 305 1083 b 462 1330 305 1258 373 1330 m 462 1227 b 406 1171 432 1227 406 1203 b 462 1116 406 1141 432 1116 b 518 1171 494 1116 518 1141 b 462 1227 518 1203 494 1227 m 699 0 l 626 197 l 297 197 l 227 0 l 38 0 l 391 972 l 534 972 l 886 0 m 588 333 l 461 703 l 333 333 "},"Ã":{"ha":924,"x_min":0,"x_max":0,"o":"m 272 1178 b 392 1322 292 1243 322 1322 b 437 1308 409 1322 424 1315 l 476 1282 b 506 1273 485 1277 496 1273 b 546 1321 530 1273 543 1302 l 653 1297 b 540 1148 644 1248 608 1148 b 486 1162 521 1148 503 1153 l 441 1189 b 417 1197 436 1192 425 1197 b 376 1144 398 1197 388 1173 m 699 0 l 626 197 l 297 197 l 227 0 l 38 0 l 391 972 l 534 972 l 886 0 m 588 333 l 461 703 l 333 333 "},"Æ":{"ha":1157,"x_min":0,"x_max":0,"o":"m 648 820 l 648 578 l 1069 578 l 1069 425 l 648 425 l 648 152 l 1124 152 l 1124 0 l 467 0 l 467 197 l 302 197 l 232 0 l 43 0 l 396 972 l 1111 972 l 1111 820 m 467 333 l 467 703 l 339 333 "},"B":{"ha":875,"x_min":0,"x_max":0,"o":"m 503 972 b 795 709 667 972 795 896 b 690 526 795 613 746 554 b 823 293 776 489 823 409 b 505 0 823 53 665 0 l 93 0 l 93 972 m 274 595 l 515 595 b 613 709 556 595 613 621 b 500 820 613 793 567 820 l 274 820 m 274 152 l 501 152 b 643 293 578 152 643 173 b 513 442 643 399 588 442 l 274 442 "},"Ḅ":{"ha":875,"x_min":0,"x_max":0,"o":"m 503 972 b 795 709 667 972 795 896 b 690 526 795 613 746 554 b 823 293 776 489 823 409 b 505 0 823 53 665 0 l 93 0 l 93 972 m 274 595 l 515 595 b 613 709 556 595 613 621 b 500 820 613 793 567 820 l 274 820 m 274 152 l 501 152 b 643 293 578 152 643 173 b 513 442 643 399 588 442 l 274 442 m 355 -250 l 355 -114 l 492 -114 l 492 -250 "},"C":{"ha":789,"x_min":0,"x_max":0,"o":"m 747 55 b 445 -21 611 -21 456 -21 b 60 487 95 -21 60 225 b 445 993 60 748 95 993 b 747 916 456 993 611 993 l 688 767 b 445 841 559 841 454 841 b 242 487 259 841 242 677 b 445 132 242 298 259 132 b 688 205 454 132 559 132 "},"Ć":{"ha":789,"x_min":0,"x_max":0,"o":"m 241 1145 l 373 1311 l 537 1311 l 371 1145 m 747 55 b 445 -21 611 -21 456 -21 b 60 487 95 -21 60 225 b 445 993 60 748 95 993 b 747 916 456 993 611 993 l 688 767 b 445 841 559 841 454 841 b 242 487 259 841 242 677 b 445 132 242 298 259 132 b 688 205 454 132 559 132 "},"Č":{"ha":789,"x_min":0,"x_max":0,"o":"m 379 1145 l 247 1311 l 367 1311 l 418 1259 l 470 1311 l 590 1311 l 458 1145 m 747 55 b 445 -21 611 -21 456 -21 b 60 487 95 -21 60 225 b 445 993 60 748 95 993 b 747 916 456 993 611 993 l 688 767 b 445 841 559 841 454 841 b 242 487 259 841 242 677 b 445 132 242 298 259 132 b 688 205 454 132 559 132 "},"Ç":{"ha":772,"x_min":0,"x_max":0,"o":"m 338 -13 b 54 487 82 31 54 253 b 439 993 54 748 89 993 b 741 916 450 993 605 993 l 682 767 b 439 841 553 841 448 841 b 236 487 253 841 236 677 b 439 132 236 298 253 132 b 682 205 448 132 553 132 l 741 56 b 486 -17 646 3 530 -11 b 417 -19 458 -19 434 -19 l 417 -51 l 445 -51 b 542 -154 521 -51 542 -108 b 256 -279 542 -276 464 -279 l 256 -208 b 435 -154 400 -208 435 -207 b 385 -118 435 -136 427 -118 l 338 -118 "},"Ċ":{"ha":789,"x_min":0,"x_max":0,"o":"m 354 1158 l 354 1293 l 492 1293 l 492 1158 m 747 55 b 445 -21 611 -21 456 -21 b 60 487 95 -21 60 225 b 445 993 60 748 95 993 b 747 916 456 993 611 993 l 688 767 b 445 841 559 841 454 841 b 242 487 259 841 242 677 b 445 132 242 298 259 132 b 688 205 454 132 559 132 "},"D":{"ha":890,"x_min":0,"x_max":0,"o":"m 451 972 b 831 639 650 972 831 846 l 831 337 b 451 0 831 132 653 0 l 93 0 l 93 972 m 274 152 l 451 152 b 651 337 558 152 651 219 l 651 639 b 451 820 651 757 558 820 l 274 820 "},"Ð":{"ha":925,"x_min":0,"x_max":0,"o":"m 485 972 b 865 639 684 972 865 846 l 865 337 b 485 0 865 132 687 0 l 127 0 l 127 420 l 22 420 l 22 566 l 127 566 l 127 972 m 308 566 l 456 566 l 456 420 l 308 420 l 308 152 l 485 152 b 685 337 592 152 685 219 l 685 639 b 485 820 685 757 592 820 l 308 820 "},"Ď":{"ha":890,"x_min":0,"x_max":0,"o":"m 418 1145 l 286 1311 l 406 1311 l 457 1259 l 509 1311 l 630 1311 l 497 1145 m 451 972 b 831 639 650 972 831 846 l 831 337 b 451 0 831 132 653 0 l 93 0 l 93 972 m 274 152 l 451 152 b 651 337 558 152 651 219 l 651 639 b 451 820 651 757 558 820 l 274 820 "},"Ḓ":{"ha":890,"x_min":0,"x_max":0,"o":"m 451 972 b 831 639 650 972 831 846 l 831 337 b 451 0 831 132 653 0 l 93 0 l 93 972 m 274 152 l 451 152 b 651 337 558 152 651 219 l 651 639 b 451 820 651 757 558 820 l 274 820 m 484 -250 l 433 -197 l 381 -250 l 261 -250 l 393 -83 l 472 -83 l 605 -250 "},"Đ":{"ha":925,"x_min":0,"x_max":0,"o":"m 485 972 b 865 639 684 972 865 846 l 865 337 b 485 0 865 132 687 0 l 127 0 l 127 420 l 22 420 l 22 566 l 127 566 l 127 972 m 308 566 l 456 566 l 456 420 l 308 420 l 308 152 l 485 152 b 685 337 592 152 685 219 l 685 639 b 485 820 685 757 592 820 l 308 820 "},"Ḍ":{"ha":890,"x_min":0,"x_max":0,"o":"m 451 972 b 831 639 650 972 831 846 l 831 337 b 451 0 831 132 653 0 l 93 0 l 93 972 m 274 152 l 451 152 b 651 337 558 152 651 219 l 651 639 b 451 820 651 757 558 820 l 274 820 m 366 -250 l 366 -114 l 503 -114 l 503 -250 "},"Ḏ":{"ha":890,"x_min":0,"x_max":0,"o":"m 451 972 b 831 639 650 972 831 846 l 831 337 b 451 0 831 132 653 0 l 93 0 l 93 972 m 274 152 l 451 152 b 651 337 558 152 651 219 l 651 639 b 451 820 651 757 558 820 l 274 820 m 212 -256 l 212 -121 l 649 -121 l 649 -256 "},"E":{"ha":797,"x_min":0,"x_max":0,"o":"m 274 820 l 274 578 l 696 578 l 696 425 l 274 425 l 274 152 l 751 152 l 751 0 l 93 0 l 93 972 l 738 972 l 738 820 "},"É":{"ha":797,"x_min":0,"x_max":0,"o":"m 262 1153 l 394 1319 l 558 1319 l 392 1153 m 274 820 l 274 578 l 696 578 l 696 425 l 274 425 l 274 152 l 751 152 l 751 0 l 93 0 l 93 972 l 738 972 l 738 820 "},"Ě":{"ha":797,"x_min":0,"x_max":0,"o":"m 371 1153 l 239 1319 l 358 1319 l 410 1267 l 462 1319 l 582 1319 l 450 1153 m 274 820 l 274 578 l 696 578 l 696 425 l 274 425 l 274 152 l 751 152 l 751 0 l 93 0 l 93 972 l 738 972 l 738 820 "},"Ȩ":{"ha":797,"x_min":0,"x_max":0,"o":"m 274 820 l 274 578 l 696 578 l 696 425 l 274 425 l 274 152 l 751 152 l 751 0 l 451 0 l 451 -37 l 479 -37 b 576 -140 555 -37 576 -94 b 290 -265 576 -261 498 -265 l 290 -194 b 469 -140 435 -194 469 -193 b 419 -104 469 -122 461 -104 l 372 -104 l 372 0 l 93 0 l 93 972 l 738 972 l 738 820 "},"Ê":{"ha":797,"x_min":0,"x_max":0,"o":"m 462 1153 l 410 1206 l 358 1153 l 239 1153 l 371 1319 l 450 1319 l 582 1153 m 274 820 l 274 578 l 696 578 l 696 425 l 274 425 l 274 152 l 751 152 l 751 0 l 93 0 l 93 972 l 738 972 l 738 820 "},"Ệ":{"ha":797,"x_min":0,"x_max":0,"o":"m 462 1153 l 410 1206 l 358 1153 l 239 1153 l 371 1319 l 450 1319 l 582 1153 m 274 820 l 274 578 l 696 578 l 696 425 l 274 425 l 274 152 l 751 152 l 751 0 l 93 0 l 93 972 l 738 972 l 738 820 m 365 -240 l 365 -106 l 502 -106 l 502 -240 "},"Ë":{"ha":797,"x_min":0,"x_max":0,"o":"m 234 1166 l 234 1302 l 371 1302 l 371 1166 m 450 1166 l 450 1302 l 586 1302 l 586 1166 m 274 820 l 274 578 l 696 578 l 696 425 l 274 425 l 274 152 l 751 152 l 751 0 l 93 0 l 93 972 l 738 972 l 738 820 "},"Ė":{"ha":797,"x_min":0,"x_max":0,"o":"m 342 1166 l 342 1301 l 479 1301 l 479 1166 m 274 820 l 274 578 l 696 578 l 696 425 l 274 425 l 274 152 l 751 152 l 751 0 l 93 0 l 93 972 l 738 972 l 738 820 "},"Ẹ":{"ha":797,"x_min":0,"x_max":0,"o":"m 274 820 l 274 578 l 696 578 l 696 425 l 274 425 l 274 152 l 751 152 l 751 0 l 93 0 l 93 972 l 738 972 l 738 820 m 365 -240 l 365 -106 l 502 -106 l 502 -240 "},"È":{"ha":797,"x_min":0,"x_max":0,"o":"m 430 1153 l 262 1319 l 426 1319 l 559 1153 m 274 820 l 274 578 l 696 578 l 696 425 l 274 425 l 274 152 l 751 152 l 751 0 l 93 0 l 93 972 l 738 972 l 738 820 "},"Ē":{"ha":797,"x_min":0,"x_max":0,"o":"m 192 1166 l 192 1302 l 629 1302 l 629 1166 m 274 820 l 274 578 l 696 578 l 696 425 l 274 425 l 274 152 l 751 152 l 751 0 l 93 0 l 93 972 l 738 972 l 738 820 "},"Ę":{"ha":797,"x_min":0,"x_max":0,"o":"m 274 820 l 274 578 l 696 578 l 696 425 l 274 425 l 274 152 l 751 152 l 751 0 l 605 0 b 531 -40 540 0 531 -18 b 697 -147 531 -119 559 -147 l 697 -232 b 444 -60 486 -232 444 -185 b 458 0 444 -35 447 -15 l 93 0 l 93 972 l 738 972 l 738 820 "},"Ẽ":{"ha":797,"x_min":0,"x_max":0,"o":"m 220 1178 b 340 1322 240 1243 270 1322 b 385 1308 357 1322 372 1315 l 424 1282 b 454 1273 433 1277 444 1273 b 494 1321 478 1273 491 1302 l 601 1297 b 489 1148 592 1248 556 1148 b 434 1162 469 1148 451 1153 l 389 1189 b 365 1197 384 1192 373 1197 b 324 1144 346 1197 336 1173 m 274 820 l 274 578 l 696 578 l 696 425 l 274 425 l 274 152 l 751 152 l 751 0 l 93 0 l 93 972 l 738 972 l 738 820 "},"F":{"ha":758,"x_min":0,"x_max":0,"o":"m 274 820 l 274 578 l 671 578 l 671 425 l 274 425 l 274 0 l 93 0 l 93 972 l 713 972 l 713 820 "},"G":{"ha":883,"x_min":0,"x_max":0,"o":"m 60 613 b 462 994 60 787 135 994 b 805 906 558 994 702 967 l 726 771 b 462 841 640 824 543 841 b 240 613 280 841 240 723 l 240 365 b 446 135 240 222 319 135 b 610 149 455 135 555 136 l 610 411 l 451 411 l 451 562 l 791 562 l 791 54 b 446 -18 702 -11 455 -18 b 60 365 207 -18 60 138 "},"Ğ":{"ha":883,"x_min":0,"x_max":0,"o":"m 632 1311 b 442 1124 632 1176 544 1124 l 417 1124 b 227 1311 314 1124 227 1176 l 346 1311 b 417 1232 346 1256 384 1232 l 442 1232 b 512 1311 473 1232 512 1256 m 60 613 b 463 994 60 787 135 994 b 805 906 558 994 702 967 l 726 771 b 463 841 640 824 543 841 b 240 613 280 841 240 723 l 240 365 b 446 135 240 222 319 135 b 610 150 455 135 555 136 l 610 411 l 451 411 l 451 562 l 791 562 l 791 54 b 446 -18 702 -11 456 -18 b 60 365 207 -18 60 138 "},"Ǧ":{"ha":883,"x_min":0,"x_max":0,"o":"m 389 1145 l 257 1311 l 377 1311 l 429 1259 l 480 1311 l 601 1311 l 468 1145 m 60 613 b 462 994 60 787 135 994 b 805 906 558 994 702 967 l 726 771 b 463 841 640 824 543 841 b 240 613 280 841 240 723 l 240 365 b 446 135 240 222 319 135 b 610 150 455 135 555 136 l 610 411 l 451 411 l 451 562 l 791 562 l 791 54 b 446 -18 702 -11 455 -18 b 60 365 207 -18 60 138 "},"Ģ":{"ha":883,"x_min":0,"x_max":0,"o":"m 60 613 b 462 994 60 787 135 994 b 805 906 558 994 702 967 l 726 771 b 462 841 640 824 543 841 b 240 613 280 841 240 723 l 240 365 b 446 135 240 222 319 135 b 610 149 455 135 555 136 l 610 411 l 451 411 l 451 562 l 791 562 l 791 54 b 446 -18 702 -11 455 -18 b 60 365 207 -18 60 138 m 498 -188 b 347 -302 498 -265 423 -308 l 347 -218 b 369 -188 362 -212 369 -205 l 369 -77 l 498 -77 "},"Ġ":{"ha":883,"x_min":0,"x_max":0,"o":"m 361 1158 l 361 1293 l 498 1293 l 498 1158 m 60 613 b 462 994 60 787 135 994 b 805 906 558 994 702 967 l 726 771 b 462 841 640 824 543 841 b 240 613 280 841 240 723 l 240 365 b 446 135 240 222 319 135 b 610 149 455 135 555 136 l 610 411 l 451 411 l 451 562 l 791 562 l 791 54 b 446 -18 702 -11 455 -18 b 60 365 207 -18 60 138 "},"H":{"ha":936,"x_min":0,"x_max":0,"o":"m 663 0 l 663 425 l 274 425 l 274 0 l 93 0 l 93 972 l 274 972 l 274 578 l 663 578 l 663 972 l 844 972 l 844 0 "},"Ħ":{"ha":971,"x_min":0,"x_max":0,"o":"m 962 844 l 962 709 l 861 709 l 861 0 l 680 0 l 680 425 l 291 425 l 291 0 l 110 0 l 110 709 l 9 709 l 9 844 l 110 844 l 110 972 l 291 972 l 291 844 l 680 844 l 680 972 l 861 972 l 861 844 m 291 578 l 680 578 l 680 709 l 291 709 "},"Ḥ":{"ha":936,"x_min":0,"x_max":0,"o":"m 663 0 l 663 425 l 274 425 l 274 0 l 93 0 l 93 972 l 274 972 l 274 578 l 663 578 l 663 972 l 844 972 l 844 0 m 403 -250 l 403 -114 l 540 -114 l 540 -250 "},"I":{"ha":368,"x_min":0,"x_max":0,"o":"m 93 0 l 93 972 l 274 972 l 274 0 "},"Ĳ":{"ha":783,"x_min":0,"x_max":0,"o":"m 690 42 b 398 -229 690 -136 478 -201 l 345 -104 b 509 42 407 -81 509 -37 l 509 972 l 690 972 m 93 0 l 93 972 l 274 972 l 274 0 "},"Í":{"ha":368,"x_min":0,"x_max":0,"o":"m 36 1153 l 168 1319 l 332 1319 l 166 1153 m 93 0 l 93 972 l 274 972 l 274 0 "},"Ǐ":{"ha":368,"x_min":0,"x_max":0,"o":"m 144 1153 l 12 1319 l 132 1319 l 183 1267 l 235 1319 l 356 1319 l 223 1153 m 93 0 l 93 972 l 274 972 l 274 0 "},"Î":{"ha":368,"x_min":0,"x_max":0,"o":"m 235 1153 l 183 1206 l 132 1153 l 12 1153 l 144 1319 l 223 1319 l 356 1153 m 93 0 l 93 972 l 274 972 l 274 0 "},"Ï":{"ha":368,"x_min":0,"x_max":0,"o":"m 8 1166 l 8 1302 l 144 1302 l 144 1166 m 223 1166 l 223 1302 l 360 1302 l 360 1166 m 93 0 l 93 972 l 274 972 l 274 0 "},"Ḯ":{"ha":368,"x_min":0,"x_max":0,"o":"m 36 1263 l 168 1429 l 332 1429 l 166 1263 m 8 1042 l 8 1177 l 144 1177 l 144 1042 m 223 1042 l 223 1177 l 360 1177 l 360 1042 m 93 0 l 93 972 l 274 972 l 274 0 "},"İ":{"ha":368,"x_min":0,"x_max":0,"o":"m 115 1166 l 115 1301 l 252 1301 l 252 1166 m 93 0 l 93 972 l 274 972 l 274 0 "},"Ị":{"ha":368,"x_min":0,"x_max":0,"o":"m 93 0 l 93 972 l 274 972 l 274 0 m 115 -250 l 115 -114 l 252 -114 l 252 -250 "},"Ì":{"ha":368,"x_min":0,"x_max":0,"o":"m 203 1153 l 35 1319 l 199 1319 l 332 1153 m 93 0 l 93 972 l 274 972 l 274 0 "},"Ī":{"ha":368,"x_min":0,"x_max":0,"o":"m -35 1166 l -35 1302 l 402 1302 l 402 1166 m 93 0 l 93 972 l 274 972 l 274 0 "},"Į":{"ha":368,"x_min":0,"x_max":0,"o":"m 274 0 b 200 -40 209 0 200 -18 b 366 -147 200 -119 228 -147 l 366 -232 b 113 -60 155 -232 113 -185 b 155 11 113 -24 122 -1 l 93 20 l 93 972 l 274 972 "},"Ĩ":{"ha":368,"x_min":0,"x_max":0,"o":"m -7 1178 b 113 1322 13 1243 43 1322 b 158 1308 130 1322 145 1315 l 197 1282 b 228 1273 207 1277 218 1273 b 268 1321 251 1273 264 1302 l 375 1297 b 262 1148 365 1248 329 1148 b 207 1162 242 1148 224 1153 l 162 1189 b 139 1197 157 1192 146 1197 b 98 1144 120 1197 109 1173 m 93 0 l 93 972 l 274 972 l 274 0 "},"J":{"ha":415,"x_min":0,"x_max":0,"o":"m 323 337 b -28 -21 323 60 137 -26 l -28 131 b 142 337 95 131 142 197 l 142 972 l 323 972 "},"K":{"ha":910,"x_min":0,"x_max":0,"o":"m 873 0 l 651 0 l 274 405 l 274 0 l 93 0 l 93 972 l 274 972 l 274 589 l 639 972 l 860 972 l 411 498 "},"Ķ":{"ha":910,"x_min":0,"x_max":0,"o":"m 873 0 l 651 0 l 274 405 l 274 0 l 93 0 l 93 972 l 274 972 l 274 589 l 639 972 l 860 972 l 411 498 m 540 -197 b 389 -311 540 -274 465 -317 l 389 -228 b 411 -197 404 -221 411 -214 l 411 -86 l 540 -86 "},"L":{"ha":750,"x_min":0,"x_max":0,"o":"m 713 152 l 713 0 l 93 0 l 93 972 l 274 972 l 274 152 "},"Ĺ":{"ha":750,"x_min":0,"x_max":0,"o":"m 222 1153 l 354 1319 l 518 1319 l 352 1153 m 713 152 l 713 0 l 93 0 l 93 972 l 274 972 l 274 152 "},"Ľ":{"ha":750,"x_min":0,"x_max":0,"o":"m 635 839 b 435 689 635 736 536 681 l 435 801 b 461 839 453 810 461 817 l 461 972 l 635 972 m 713 152 l 713 0 l 93 0 l 93 972 l 274 972 l 274 152 "},"Ḽ":{"ha":750,"x_min":0,"x_max":0,"o":"m 713 152 l 713 0 l 93 0 l 93 972 l 274 972 l 274 152 m 444 -250 l 392 -197 l 341 -250 l 221 -250 l 353 -83 l 432 -83 l 565 -250 "},"Ļ":{"ha":750,"x_min":0,"x_max":0,"o":"m 713 152 l 713 0 l 93 0 l 93 972 l 274 972 l 274 152 m 439 -197 b 288 -311 439 -274 364 -317 l 288 -228 b 310 -197 303 -221 310 -214 l 310 -86 l 439 -86 "},"Ŀ":{"ha":750,"x_min":0,"x_max":0,"o":"m 713 152 l 713 0 l 93 0 l 93 972 l 274 972 l 274 152 m 456 382 l 456 567 l 631 567 l 631 382 "},"Ḷ":{"ha":750,"x_min":0,"x_max":0,"o":"m 713 152 l 713 0 l 93 0 l 93 972 l 274 972 l 274 152 m 326 -250 l 326 -114 l 463 -114 l 463 -250 "},"Ł":{"ha":800,"x_min":0,"x_max":0,"o":"m 548 733 l 548 540 l 346 396 l 346 152 l 785 152 l 785 0 l 166 0 l 166 269 l 42 180 l 42 379 l 166 468 l 166 972 l 346 972 l 346 592 "},"M":{"ha":1093,"x_min":0,"x_max":0,"o":"m 838 0 l 817 589 l 609 197 l 485 197 l 276 590 l 255 0 l 75 0 l 109 972 l 270 972 l 546 449 l 823 972 l 984 972 l 1018 0 "},"Ḿ":{"ha":1093,"x_min":0,"x_max":0,"o":"m 403 1153 l 534 1319 l 699 1319 l 532 1153 m 838 0 l 817 589 l 609 197 l 485 197 l 276 590 l 255 0 l 75 0 l 109 972 l 270 972 l 546 449 l 823 972 l 984 972 l 1018 0 "},"N":{"ha":904,"x_min":0,"x_max":0,"o":"m 671 0 l 261 622 l 261 0 l 81 0 l 81 972 l 237 972 l 643 353 l 643 972 l 823 972 l 823 0 "},"Ń":{"ha":904,"x_min":0,"x_max":0,"o":"m 305 1145 l 436 1311 l 601 1311 l 434 1145 m 671 0 l 261 622 l 261 0 l 81 0 l 81 972 l 237 972 l 643 353 l 643 972 l 823 972 l 823 0 "},"Ň":{"ha":904,"x_min":0,"x_max":0,"o":"m 413 1145 l 281 1311 l 401 1311 l 452 1259 l 504 1311 l 624 1311 l 492 1145 m 671 0 l 261 622 l 261 0 l 81 0 l 81 972 l 237 972 l 643 353 l 643 972 l 823 972 l 823 0 "},"Ṋ":{"ha":904,"x_min":0,"x_max":0,"o":"m 671 0 l 261 622 l 261 0 l 81 0 l 81 972 l 237 972 l 643 353 l 643 972 l 823 972 l 823 0 m 502 -240 l 450 -189 l 399 -240 l 279 -240 l 411 -75 l 490 -75 l 623 -240 "},"Ņ":{"ha":904,"x_min":0,"x_max":0,"o":"m 671 0 l 261 622 l 261 0 l 81 0 l 81 972 l 237 972 l 643 353 l 643 972 l 823 972 l 823 0 m 521 -189 b 370 -303 521 -265 447 -308 l 370 -218 b 393 -189 385 -212 393 -206 l 393 -78 l 521 -78 "},"Ṅ":{"ha":904,"x_min":0,"x_max":0,"o":"m 384 1158 l 384 1293 l 521 1293 l 521 1158 m 671 0 l 261 622 l 261 0 l 81 0 l 81 972 l 237 972 l 643 353 l 643 972 l 823 972 l 823 0 "},"Ṇ":{"ha":904,"x_min":0,"x_max":0,"o":"m 671 0 l 261 622 l 261 0 l 81 0 l 81 972 l 237 972 l 643 353 l 643 972 l 823 972 l 823 0 m 384 -240 l 384 -106 l 521 -106 l 521 -240 "},"Ŋ":{"ha":904,"x_min":0,"x_max":0,"o":"m 823 -15 b 531 -286 823 -193 611 -258 l 479 -161 b 643 -15 541 -137 643 -94 l 643 33 l 641 45 l 261 622 l 261 0 l 81 0 l 81 972 l 237 972 l 643 353 l 643 972 l 823 972 "},"Ñ":{"ha":904,"x_min":0,"x_max":0,"o":"m 262 1169 b 382 1314 282 1234 312 1314 b 427 1299 399 1314 414 1307 l 466 1274 b 496 1265 475 1268 486 1265 b 536 1312 520 1265 533 1294 l 643 1289 b 531 1140 634 1240 598 1140 b 476 1153 511 1140 493 1145 l 431 1181 b 408 1189 426 1184 415 1189 b 366 1136 388 1189 378 1165 m 671 0 l 261 622 l 261 0 l 81 0 l 81 972 l 237 972 l 643 353 l 643 972 l 823 972 l 823 0 "},"O":{"ha":879,"x_min":0,"x_max":0,"o":"m 60 659 b 439 994 60 866 241 994 b 819 659 640 994 819 866 l 819 317 b 439 -21 819 112 641 -21 b 60 317 238 -21 60 112 m 639 659 b 439 841 639 777 546 841 b 240 659 333 841 240 777 l 240 317 b 439 132 240 199 332 132 b 639 317 546 132 639 199 "},"Ó":{"ha":879,"x_min":0,"x_max":0,"o":"m 292 1145 l 423 1311 l 588 1311 l 422 1145 m 60 659 b 439 994 60 866 241 994 b 819 659 640 994 819 866 l 819 317 b 439 -21 819 112 641 -21 b 60 317 238 -21 60 112 m 639 659 b 439 841 639 778 546 841 b 240 659 333 841 240 778 l 240 317 b 439 132 240 199 332 132 b 639 317 546 132 639 199 "},"Ǒ":{"ha":879,"x_min":0,"x_max":0,"o":"m 400 1145 l 268 1311 l 388 1311 l 439 1259 l 491 1311 l 611 1311 l 479 1145 m 60 659 b 439 994 60 866 241 994 b 819 659 640 994 819 866 l 819 317 b 439 -21 819 112 641 -21 b 60 317 238 -21 60 112 m 639 659 b 439 841 639 778 546 841 b 240 659 333 841 240 778 l 240 317 b 439 132 240 199 332 132 b 639 317 546 132 639 199 "},"Ô":{"ha":879,"x_min":0,"x_max":0,"o":"m 491 1145 l 439 1197 l 388 1145 l 268 1145 l 400 1311 l 479 1311 l 611 1145 m 60 659 b 439 994 60 866 241 994 b 819 659 640 994 819 866 l 819 317 b 439 -21 819 112 641 -21 b 60 317 238 -21 60 112 m 639 659 b 439 841 639 778 546 841 b 240 659 333 841 240 778 l 240 317 b 439 132 240 199 332 132 b 639 317 546 132 639 199 "},"Ộ":{"ha":879,"x_min":0,"x_max":0,"o":"m 491 1145 l 439 1197 l 388 1145 l 268 1145 l 400 1311 l 479 1311 l 611 1145 m 60 659 b 439 994 60 866 241 994 b 819 659 640 994 819 866 l 819 317 b 439 -21 819 112 641 -21 b 60 317 238 -21 60 112 m 639 659 b 439 841 639 778 546 841 b 240 659 333 841 240 778 l 240 317 b 439 132 240 199 332 132 b 639 317 546 132 639 199 m 370 -250 l 370 -114 l 507 -114 l 507 -250 "},"Ȫ":{"ha":879,"x_min":0,"x_max":0,"o":"m 221 1271 l 221 1407 l 658 1407 l 658 1271 m 264 1073 l 264 1209 l 400 1209 l 400 1073 m 479 1073 l 479 1209 l 616 1209 l 616 1073 m 60 659 b 439 994 60 866 241 994 b 819 659 640 994 819 866 l 819 317 b 439 -21 819 112 641 -21 b 60 317 238 -21 60 112 m 639 659 b 439 841 639 778 546 841 b 240 659 333 841 240 778 l 240 317 b 439 132 240 199 332 132 b 639 317 546 132 639 199 "},"Ö":{"ha":879,"x_min":0,"x_max":0,"o":"m 264 1158 l 264 1293 l 400 1293 l 400 1158 m 479 1158 l 479 1293 l 616 1293 l 616 1158 m 60 659 b 439 994 60 866 241 994 b 819 659 640 994 819 866 l 819 317 b 439 -21 819 112 641 -21 b 60 317 238 -21 60 112 m 639 659 b 439 841 639 777 546 841 b 240 659 333 841 240 777 l 240 317 b 439 132 240 199 332 132 b 639 317 546 132 639 199 "},"Ọ":{"ha":879,"x_min":0,"x_max":0,"o":"m 60 659 b 439 994 60 866 241 994 b 819 659 640 994 819 866 l 819 317 b 439 -21 819 112 641 -21 b 60 317 238 -21 60 112 m 639 659 b 439 841 639 777 546 841 b 240 659 333 841 240 777 l 240 317 b 439 132 240 199 332 132 b 639 317 546 132 639 199 m 370 -250 l 370 -114 l 507 -114 l 507 -250 "},"Ò":{"ha":879,"x_min":0,"x_max":0,"o":"m 459 1145 l 291 1311 l 455 1311 l 588 1145 m 60 659 b 439 994 60 866 241 994 b 819 659 640 994 819 866 l 819 317 b 439 -21 819 112 641 -21 b 60 317 238 -21 60 112 m 639 659 b 439 841 639 778 546 841 b 240 659 333 841 240 778 l 240 317 b 439 132 240 199 332 132 b 639 317 546 132 639 199 "},"Ő":{"ha":879,"x_min":0,"x_max":0,"o":"m 168 1145 l 300 1311 l 464 1311 l 298 1145 m 415 1145 l 547 1311 l 711 1311 l 545 1145 m 60 659 b 439 994 60 866 241 994 b 819 659 640 994 819 866 l 819 317 b 439 -21 819 112 641 -21 b 60 317 238 -21 60 112 m 639 659 b 439 841 639 778 546 841 b 240 659 333 841 240 778 l 240 317 b 439 132 240 199 332 132 b 639 317 546 132 639 199 "},"Ō":{"ha":879,"x_min":0,"x_max":0,"o":"m 221 1158 l 221 1293 l 658 1293 l 658 1158 m 60 659 b 439 994 60 866 241 994 b 819 659 640 994 819 866 l 819 317 b 439 -21 819 112 641 -21 b 60 317 238 -21 60 112 m 639 659 b 439 841 639 778 546 841 b 240 659 333 841 240 778 l 240 317 b 439 132 240 199 332 132 b 639 317 546 132 639 199 "},"Ṓ":{"ha":879,"x_min":0,"x_max":0,"o":"m 292 1270 l 423 1436 l 588 1436 l 422 1270 m 221 1069 l 221 1205 l 658 1205 l 658 1069 m 60 659 b 439 994 60 866 241 994 b 819 659 640 994 819 866 l 819 317 b 439 -21 819 112 641 -21 b 60 317 238 -21 60 112 m 639 659 b 439 841 639 778 546 841 b 240 659 333 841 240 778 l 240 317 b 439 132 240 199 332 132 b 639 317 546 132 639 199 "},"Ṑ":{"ha":879,"x_min":0,"x_max":0,"o":"m 588 1270 l 458 1270 l 292 1436 l 456 1436 m 221 1069 l 221 1205 l 658 1205 l 658 1069 m 60 659 b 439 994 60 866 241 994 b 819 659 640 994 819 866 l 819 317 b 439 -21 819 112 641 -21 b 60 317 238 -21 60 112 m 639 659 b 439 841 639 778 546 841 b 240 659 333 841 240 778 l 240 317 b 439 132 240 199 332 132 b 639 317 546 132 639 199 "},"Ø":{"ha":885,"x_min":0,"x_max":0,"o":"m 704 907 b 822 659 776 849 822 764 l 822 317 b 442 -21 822 112 644 -21 b 299 3 392 -21 344 -13 l 267 -69 l 121 -69 l 182 67 b 63 317 110 126 63 212 l 63 659 b 442 994 63 866 244 994 b 587 970 493 994 542 986 l 619 1042 l 765 1042 m 243 317 b 259 239 243 288 249 262 l 523 827 b 442 841 498 836 470 841 b 243 660 336 841 243 778 m 642 660 b 627 734 642 688 637 713 l 363 145 b 442 132 387 136 414 132 b 642 317 550 132 642 199 "},"Ǿ":{"ha":885,"x_min":0,"x_max":0,"o":"m 292 1153 l 424 1319 l 588 1319 l 422 1153 m 705 907 b 822 659 776 849 822 764 l 822 317 b 442 -21 822 112 644 -21 b 299 3 392 -21 344 -13 l 267 -69 l 121 -69 l 182 67 b 63 317 110 126 63 212 l 63 659 b 442 994 63 866 244 994 b 587 970 493 994 542 986 l 619 1042 l 765 1042 m 243 317 b 259 239 243 288 249 262 l 523 827 b 442 841 498 836 470 841 b 243 660 336 841 243 778 m 642 660 b 627 734 642 688 637 713 l 363 145 b 442 132 387 136 414 132 b 642 317 550 132 642 199 "},"Õ":{"ha":879,"x_min":0,"x_max":0,"o":"m 249 1169 b 369 1314 269 1234 299 1314 b 414 1299 386 1314 401 1307 l 453 1274 b 483 1265 462 1268 473 1265 b 523 1312 507 1265 520 1294 l 630 1289 b 518 1140 621 1240 585 1140 b 463 1153 498 1140 480 1145 l 418 1181 b 395 1189 413 1184 402 1189 b 353 1136 375 1189 365 1165 m 60 659 b 439 994 60 866 241 994 b 819 659 640 994 819 866 l 819 317 b 439 -21 819 112 641 -21 b 60 317 238 -21 60 112 m 639 659 b 439 841 639 778 546 841 b 240 659 333 841 240 778 l 240 317 b 439 132 240 199 332 132 b 639 317 546 132 639 199 "},"Ṍ":{"ha":879,"x_min":0,"x_max":0,"o":"m 292 1257 l 423 1423 l 588 1423 l 422 1257 m 249 1077 b 369 1221 269 1142 299 1221 b 414 1207 386 1221 401 1214 l 453 1182 b 483 1172 462 1176 473 1172 b 523 1220 507 1172 520 1202 l 630 1197 b 518 1048 621 1148 585 1048 b 463 1061 498 1048 480 1053 l 418 1088 b 395 1096 413 1092 402 1096 b 353 1044 375 1096 365 1073 m 60 659 b 439 994 60 866 241 994 b 819 659 640 994 819 866 l 819 317 b 439 -21 819 112 641 -21 b 60 317 238 -21 60 112 m 639 659 b 439 841 639 777 546 841 b 240 659 333 841 240 777 l 240 317 b 439 132 240 199 332 132 b 639 317 546 132 639 199 "},"Œ":{"ha":1382,"x_min":0,"x_max":0,"o":"m 65 659 b 444 994 65 866 246 994 b 687 899 540 994 630 960 l 687 972 l 1332 972 l 1332 820 l 868 820 l 868 578 l 1290 578 l 1290 425 l 868 425 l 868 152 l 1345 152 l 1345 0 l 687 0 l 687 76 b 444 -21 630 14 541 -21 b 65 317 244 -21 65 112 m 644 664 b 444 841 644 779 549 841 b 245 659 338 841 245 777 l 245 317 b 444 132 245 199 337 132 b 644 311 550 132 644 201 "},"P":{"ha":867,"x_min":0,"x_max":0,"o":"m 505 972 b 821 651 725 972 821 836 b 505 332 821 470 725 332 l 274 332 l 274 0 l 93 0 l 93 972 m 274 484 l 505 484 b 640 651 599 484 640 550 b 505 820 640 753 599 820 l 274 820 "},"Þ":{"ha":747,"x_min":0,"x_max":0,"o":"m 446 821 b 731 532 643 821 731 697 b 446 245 731 370 644 245 l 251 245 l 251 0 l 70 0 l 70 972 l 251 972 l 251 821 m 251 399 l 436 399 b 550 532 512 399 550 449 b 436 669 550 616 512 669 l 251 669 "},"Q":{"ha":897,"x_min":0,"x_max":0,"o":"m 60 658 b 440 992 60 865 241 992 b 820 658 639 992 820 865 l 820 316 b 700 72 820 214 772 131 l 838 -69 l 722 -183 l 548 -8 b 440 -22 514 -18 477 -22 b 60 316 239 -22 60 110 m 639 658 b 440 839 639 776 546 839 b 240 658 334 839 240 776 l 240 316 b 440 130 240 198 333 130 b 639 316 547 130 639 197 "},"R":{"ha":913,"x_min":0,"x_max":0,"o":"m 505 972 b 821 664 724 972 821 839 b 619 381 821 526 758 417 l 862 0 l 659 0 l 436 356 l 274 356 l 274 0 l 93 0 l 93 972 m 274 508 l 505 508 b 640 664 599 508 640 570 b 505 820 640 758 599 820 l 274 820 "},"Ŕ":{"ha":913,"x_min":0,"x_max":0,"o":"m 322 1145 l 454 1311 l 618 1311 l 452 1145 m 505 972 b 821 664 724 972 821 839 b 619 381 821 526 758 417 l 862 0 l 659 0 l 436 356 l 274 356 l 274 0 l 93 0 l 93 972 m 274 508 l 505 508 b 640 664 599 508 640 570 b 505 820 640 758 599 820 l 274 820 "},"Ř":{"ha":913,"x_min":0,"x_max":0,"o":"m 430 1145 l 298 1311 l 418 1311 l 470 1259 l 521 1311 l 642 1311 l 509 1145 m 505 972 b 821 664 724 972 821 839 b 619 381 821 526 758 417 l 862 0 l 659 0 l 436 356 l 274 356 l 274 0 l 93 0 l 93 972 m 274 508 l 505 508 b 640 664 599 508 640 570 b 505 820 640 758 599 820 l 274 820 "},"Ŗ":{"ha":913,"x_min":0,"x_max":0,"o":"m 505 972 b 821 664 724 972 821 839 b 619 381 821 526 758 417 l 862 0 l 659 0 l 436 356 l 274 356 l 274 0 l 93 0 l 93 972 m 274 508 l 505 508 b 640 664 599 508 640 570 b 505 820 640 758 599 820 l 274 820 m 539 -189 b 388 -303 539 -265 464 -308 l 388 -218 b 410 -189 403 -212 410 -206 l 410 -78 l 539 -78 "},"S":{"ha":774,"x_min":0,"x_max":0,"o":"m 88 192 b 381 132 232 146 300 132 b 548 269 462 132 548 146 b 361 435 548 366 455 402 b 64 721 223 482 64 543 b 404 994 64 858 136 994 b 703 902 471 994 597 979 l 619 769 b 404 841 527 826 459 841 b 244 721 286 841 244 789 b 415 579 244 637 326 609 b 729 269 569 526 729 473 b 381 -22 729 -12 521 -22 b 43 45 281 -22 191 -6 "},"Ś":{"ha":774,"x_min":0,"x_max":0,"o":"m 239 1145 l 371 1311 l 535 1311 l 369 1145 m 88 192 b 381 132 232 146 300 132 b 548 269 462 132 548 146 b 361 435 548 366 455 402 b 64 721 222 482 64 543 b 404 994 64 858 136 994 b 703 902 471 994 597 979 l 619 769 b 404 841 527 826 459 841 b 244 721 286 841 244 789 b 415 579 244 637 326 609 b 729 269 569 526 729 473 b 381 -22 729 -12 521 -22 b 43 45 281 -22 191 -6 "},"Š":{"ha":774,"x_min":0,"x_max":0,"o":"m 347 1145 l 215 1311 l 335 1311 l 387 1259 l 438 1311 l 559 1311 l 426 1145 m 88 192 b 381 132 232 146 300 132 b 548 269 462 132 548 146 b 361 435 548 366 455 402 b 64 721 223 482 64 543 b 404 994 64 858 136 994 b 703 902 471 994 597 979 l 619 769 b 404 841 527 826 459 841 b 244 721 286 841 244 789 b 415 579 244 637 326 609 b 729 269 569 526 729 473 b 381 -22 729 -12 521 -22 b 43 45 281 -22 191 -6 "},"Ş":{"ha":774,"x_min":0,"x_max":0,"o":"m 88 192 b 381 131 232 146 300 131 b 548 269 462 131 548 145 b 361 434 548 365 455 402 b 64 720 222 481 64 542 b 404 994 64 858 136 994 b 703 902 471 994 597 978 l 619 768 b 404 841 527 825 459 841 b 244 720 286 841 244 789 b 415 579 244 637 326 608 b 729 269 569 526 729 472 b 458 -17 729 36 585 -6 b 405 -21 440 -19 422 -21 l 405 -51 l 433 -51 b 530 -154 509 -51 530 -108 b 244 -279 530 -275 452 -279 l 244 -207 b 423 -154 388 -207 423 -206 b 373 -117 423 -135 415 -117 l 326 -117 l 326 -19 b 43 45 245 -14 163 4 "},"Ș":{"ha":774,"x_min":0,"x_max":0,"o":"m 88 192 b 381 132 232 146 300 132 b 548 269 462 132 548 146 b 361 435 548 366 455 402 b 64 721 223 482 64 543 b 404 994 64 858 136 994 b 703 902 471 994 597 979 l 619 769 b 404 841 527 826 459 841 b 244 721 286 841 244 789 b 415 579 244 637 326 609 b 729 269 569 526 729 473 b 381 -22 729 -12 521 -22 b 43 45 281 -22 191 -6 m 456 -188 b 305 -302 456 -265 381 -308 l 305 -217 b 327 -188 320 -211 327 -205 l 327 -77 l 456 -77 "},"Ṣ":{"ha":774,"x_min":0,"x_max":0,"o":"m 88 192 b 381 132 232 146 300 132 b 548 269 462 132 548 146 b 361 435 548 366 455 402 b 64 721 223 482 64 543 b 404 994 64 858 136 994 b 703 902 471 994 597 979 l 619 769 b 404 841 527 826 459 841 b 244 721 286 841 244 789 b 415 579 244 637 326 609 b 729 269 569 526 729 473 b 381 -22 729 -12 521 -22 b 43 45 281 -22 191 -6 m 319 -240 l 319 -105 l 456 -105 l 456 -240 "},"T":{"ha":792,"x_min":0,"x_max":0,"o":"m 488 820 l 488 0 l 307 0 l 307 820 l 38 820 l 38 972 l 754 972 l 754 820 "},"Ŧ":{"ha":792,"x_min":0,"x_max":0,"o":"m 177 1158 l 177 1293 l 614 1293 l 614 1158 m 488 820 l 488 0 l 307 0 l 307 820 l 38 820 l 38 972 l 754 972 l 754 820 "},"Ť":{"ha":792,"x_min":0,"x_max":0,"o":"m 356 1145 l 224 1311 l 344 1311 l 395 1259 l 447 1311 l 568 1311 l 435 1145 m 488 820 l 488 0 l 307 0 l 307 820 l 38 820 l 38 972 l 754 972 l 754 820 "},"Ţ":{"ha":792,"x_min":0,"x_max":0,"o":"m 488 820 l 488 0 l 449 0 l 449 -37 l 477 -37 b 575 -140 554 -37 575 -94 b 289 -265 575 -262 497 -265 l 289 -194 b 468 -140 433 -194 468 -193 b 418 -104 468 -122 459 -104 l 371 -104 l 373 0 l 307 0 l 307 820 l 38 820 l 38 972 l 754 972 l 754 820 "},"Ṱ":{"ha":792,"x_min":0,"x_max":0,"o":"m 488 820 l 488 0 l 307 0 l 307 820 l 38 820 l 38 972 l 754 972 l 754 820 m 445 -240 l 394 -189 l 342 -240 l 222 -240 l 354 -75 l 433 -75 l 566 -240 "},"Ț":{"ha":792,"x_min":0,"x_max":0,"o":"m 488 820 l 488 0 l 307 0 l 307 820 l 38 820 l 38 972 l 754 972 l 754 820 m 464 -189 b 314 -303 464 -265 390 -308 l 314 -218 b 336 -189 329 -211 336 -206 l 336 -78 l 464 -78 "},"Ṭ":{"ha":792,"x_min":0,"x_max":0,"o":"m 488 820 l 488 0 l 307 0 l 307 820 l 38 820 l 38 972 l 754 972 l 754 820 m 327 -240 l 327 -106 l 464 -106 l 464 -240 "},"Ṯ":{"ha":792,"x_min":0,"x_max":0,"o":"m 488 820 l 488 0 l 307 0 l 307 820 l 38 820 l 38 972 l 754 972 l 754 820 m 173 -247 l 173 -112 l 610 -112 l 610 -247 "},"U":{"ha":929,"x_min":0,"x_max":0,"o":"m 847 337 b 469 -22 847 118 719 -22 b 93 337 222 -22 93 118 l 93 972 l 274 972 l 274 337 b 469 131 274 204 340 131 b 665 337 600 131 665 204 l 665 972 l 847 972 "},"Ú":{"ha":929,"x_min":0,"x_max":0,"o":"m 322 1145 l 454 1311 l 618 1311 l 452 1145 m 847 337 b 469 -22 847 118 719 -22 b 93 337 222 -22 93 118 l 93 972 l 274 972 l 274 337 b 469 131 274 204 340 131 b 665 337 600 131 665 204 l 665 972 l 847 972 "},"Ǔ":{"ha":929,"x_min":0,"x_max":0,"o":"m 430 1145 l 299 1311 l 418 1311 l 470 1258 l 521 1311 l 642 1311 l 509 1145 m 847 337 b 469 -22 847 118 719 -22 b 93 337 222 -22 93 118 l 93 972 l 274 972 l 274 337 b 469 131 274 204 340 131 b 665 337 600 131 665 204 l 665 972 l 847 972 "},"Û":{"ha":929,"x_min":0,"x_max":0,"o":"m 521 1145 l 470 1197 l 418 1145 l 299 1145 l 430 1311 l 509 1311 l 642 1145 m 847 337 b 469 -22 847 118 718 -22 b 93 337 222 -22 93 118 l 93 972 l 274 972 l 274 337 b 469 131 274 204 340 131 b 665 337 600 131 665 204 l 665 972 l 847 972 "},"Ü":{"ha":929,"x_min":0,"x_max":0,"o":"m 294 1157 l 294 1293 l 431 1293 l 431 1157 m 510 1157 l 510 1293 l 646 1293 l 646 1157 m 847 337 b 469 -22 847 118 719 -22 b 93 337 222 -22 93 118 l 93 972 l 274 972 l 274 337 b 469 131 274 204 340 131 b 665 337 600 131 665 204 l 665 972 l 847 972 "},"Ǘ":{"ha":929,"x_min":0,"x_max":0,"o":"m 322 1269 l 454 1435 l 618 1435 l 452 1269 m 294 1042 l 294 1177 l 431 1177 l 431 1042 m 510 1042 l 510 1177 l 646 1177 l 646 1042 m 847 337 b 469 -22 847 118 719 -22 b 93 337 222 -22 93 118 l 93 972 l 274 972 l 274 337 b 469 131 274 204 340 131 b 665 337 600 131 665 204 l 665 972 l 847 972 "},"Ǚ":{"ha":929,"x_min":0,"x_max":0,"o":"m 430 1266 l 299 1432 l 418 1432 l 470 1379 l 521 1432 l 642 1432 l 509 1266 m 294 1042 l 294 1177 l 431 1177 l 431 1042 m 510 1042 l 510 1177 l 646 1177 l 646 1042 m 847 337 b 469 -22 847 118 719 -22 b 93 337 222 -22 93 118 l 93 972 l 274 972 l 274 337 b 469 131 274 204 340 131 b 665 337 600 131 665 204 l 665 972 l 847 972 "},"Ǜ":{"ha":929,"x_min":0,"x_max":0,"o":"m 490 1269 l 322 1435 l 486 1435 l 619 1269 m 294 1042 l 294 1177 l 431 1177 l 431 1042 m 510 1042 l 510 1177 l 646 1177 l 646 1042 m 847 337 b 469 -22 847 118 719 -22 b 93 337 222 -22 93 118 l 93 972 l 274 972 l 274 337 b 469 131 274 204 340 131 b 665 337 600 131 665 204 l 665 972 l 847 972 "},"Ǖ":{"ha":929,"x_min":0,"x_max":0,"o":"m 252 1281 l 252 1416 l 689 1416 l 689 1281 m 294 1075 l 294 1211 l 431 1211 l 431 1075 m 510 1075 l 510 1211 l 646 1211 l 646 1075 m 847 337 b 469 -22 847 118 719 -22 b 93 337 222 -22 93 118 l 93 972 l 274 972 l 274 337 b 469 132 274 204 340 132 b 665 337 600 132 665 204 l 665 972 l 847 972 "},"Ụ":{"ha":929,"x_min":0,"x_max":0,"o":"m 847 337 b 469 -22 847 118 719 -22 b 93 337 222 -22 93 118 l 93 972 l 274 972 l 274 337 b 469 131 274 204 340 131 b 665 337 600 131 665 204 l 665 972 l 847 972 m 401 -250 l 401 -114 l 538 -114 l 538 -250 "},"Ù":{"ha":929,"x_min":0,"x_max":0,"o":"m 490 1145 l 322 1311 l 486 1311 l 619 1145 m 847 337 b 469 -22 847 118 719 -22 b 93 337 222 -22 93 118 l 93 972 l 274 972 l 274 337 b 469 131 274 204 340 131 b 665 337 600 131 665 204 l 665 972 l 847 972 "},"Ű":{"ha":929,"x_min":0,"x_max":0,"o":"m 199 1145 l 331 1311 l 495 1311 l 329 1145 m 446 1145 l 577 1311 l 742 1311 l 575 1145 m 847 337 b 469 -22 847 118 718 -22 b 93 337 222 -22 93 118 l 93 972 l 274 972 l 274 337 b 469 131 274 204 340 131 b 665 337 600 131 665 204 l 665 972 l 847 972 "},"Ū":{"ha":929,"x_min":0,"x_max":0,"o":"m 252 1158 l 252 1293 l 689 1293 l 689 1158 m 847 337 b 469 -22 847 118 719 -22 b 93 337 222 -22 93 118 l 93 972 l 274 972 l 274 337 b 469 131 274 204 340 131 b 665 337 600 131 665 204 l 665 972 l 847 972 "},"Ų":{"ha":929,"x_min":0,"x_max":0,"o":"m 847 337 b 599 -6 847 160 763 35 b 586 -43 588 -18 586 -32 b 752 -150 586 -122 614 -150 l 752 -233 b 499 -63 541 -233 499 -188 b 504 -21 499 -46 500 -33 b 469 -22 493 -22 481 -22 b 93 337 222 -22 93 118 l 93 972 l 274 972 l 274 337 b 469 131 274 204 340 131 b 665 337 600 131 665 204 l 665 972 l 847 972 "},"Ů":{"ha":929,"x_min":0,"x_max":0,"o":"m 470 1322 b 628 1162 559 1322 628 1250 b 470 1005 628 1075 559 1005 b 312 1162 381 1005 312 1075 b 470 1322 312 1250 381 1322 m 470 1219 b 414 1162 440 1219 414 1195 b 470 1107 414 1132 440 1107 b 526 1162 502 1107 526 1132 b 470 1219 526 1195 502 1219 m 847 337 b 469 -22 847 118 719 -22 b 93 337 222 -22 93 118 l 93 972 l 274 972 l 274 337 b 469 131 274 204 340 131 b 665 337 600 131 665 204 l 665 972 l 847 972 "},"Ũ":{"ha":929,"x_min":0,"x_max":0,"o":"m 279 1169 b 400 1313 300 1234 330 1313 b 445 1299 417 1313 431 1306 l 484 1274 b 514 1264 493 1268 504 1264 b 554 1312 537 1264 551 1294 l 661 1289 b 548 1140 652 1240 615 1140 b 494 1153 529 1140 511 1145 l 449 1180 b 425 1189 444 1184 433 1189 b 384 1136 406 1189 396 1165 m 847 337 b 469 -22 847 118 719 -22 b 93 337 222 -22 93 118 l 93 972 l 274 972 l 274 337 b 469 131 274 204 340 131 b 665 337 600 131 665 204 l 665 972 l 847 972 "},"V":{"ha":949,"x_min":0,"x_max":0,"o":"m 391 0 l 38 972 l 226 972 l 474 253 l 723 972 l 911 972 l 558 0 "},"W":{"ha":1275,"x_min":0,"x_max":0,"o":"m 815 0 l 638 614 l 461 0 l 287 0 l 38 972 l 223 972 l 375 348 l 547 972 l 729 972 l 901 348 l 1053 972 l 1238 972 l 989 0 "},"Ẃ":{"ha":1275,"x_min":0,"x_max":0,"o":"m 490 1153 l 622 1319 l 786 1319 l 620 1153 m 815 0 l 638 614 l 461 0 l 287 0 l 38 972 l 223 972 l 375 348 l 547 972 l 729 972 l 901 348 l 1053 972 l 1238 972 l 989 0 "},"Ŵ":{"ha":1275,"x_min":0,"x_max":0,"o":"m 689 1153 l 638 1206 l 586 1153 l 466 1153 l 598 1319 l 677 1319 l 810 1153 m 815 0 l 638 614 l 461 0 l 287 0 l 38 972 l 223 972 l 375 348 l 547 972 l 729 972 l 901 348 l 1053 972 l 1238 972 l 989 0 "},"Ẅ":{"ha":1275,"x_min":0,"x_max":0,"o":"m 462 1166 l 462 1302 l 598 1302 l 598 1166 m 678 1166 l 678 1302 l 814 1302 l 814 1166 m 815 0 l 638 614 l 461 0 l 287 0 l 38 972 l 223 972 l 375 348 l 547 972 l 729 972 l 901 348 l 1053 972 l 1238 972 l 989 0 "},"Ẁ":{"ha":1275,"x_min":0,"x_max":0,"o":"m 657 1153 l 490 1319 l 654 1319 l 786 1153 m 815 0 l 638 614 l 461 0 l 287 0 l 38 972 l 223 972 l 375 348 l 547 972 l 729 972 l 901 348 l 1053 972 l 1238 972 l 989 0 "},"X":{"ha":996,"x_min":0,"x_max":0,"o":"m 957 0 l 743 0 l 497 348 l 251 0 l 38 0 l 392 487 l 38 972 l 251 972 l 497 624 l 743 972 l 957 972 l 602 486 "},"Y":{"ha":983,"x_min":0,"x_max":0,"o":"m 583 0 l 401 0 l 401 370 l 38 972 l 243 972 l 492 558 l 741 972 l 946 972 l 583 371 "},"Ý":{"ha":983,"x_min":0,"x_max":0,"o":"m 344 1145 l 476 1311 l 640 1311 l 474 1145 m 583 0 l 401 0 l 401 370 l 38 972 l 243 972 l 492 558 l 741 972 l 946 972 l 583 371 "},"Ŷ":{"ha":983,"x_min":0,"x_max":0,"o":"m 543 1145 l 492 1197 l 440 1145 l 320 1145 l 452 1311 l 531 1311 l 664 1145 m 583 0 l 401 0 l 401 370 l 38 972 l 243 972 l 492 558 l 741 972 l 946 972 l 583 371 "},"Ÿ":{"ha":983,"x_min":0,"x_max":0,"o":"m 316 1158 l 316 1293 l 452 1293 l 452 1158 m 532 1158 l 532 1293 l 668 1293 l 668 1158 m 583 0 l 401 0 l 401 370 l 38 972 l 243 972 l 492 558 l 741 972 l 946 972 l 583 371 "},"Ỳ":{"ha":983,"x_min":0,"x_max":0,"o":"m 511 1145 l 344 1311 l 508 1311 l 640 1145 m 583 0 l 401 0 l 401 370 l 38 972 l 243 972 l 492 558 l 741 972 l 946 972 l 583 371 "},"Z":{"ha":796,"x_min":0,"x_max":0,"o":"m 281 152 l 750 152 l 750 0 l 47 0 l 47 103 l 504 820 l 70 820 l 70 972 l 736 972 l 736 865 "},"Ź":{"ha":796,"x_min":0,"x_max":0,"o":"m 250 1145 l 382 1311 l 546 1311 l 380 1145 m 281 152 l 750 152 l 750 0 l 47 0 l 47 103 l 504 820 l 70 820 l 70 972 l 736 972 l 736 865 "},"Ž":{"ha":796,"x_min":0,"x_max":0,"o":"m 358 1145 l 226 1311 l 346 1311 l 397 1259 l 449 1311 l 570 1311 l 437 1145 m 281 152 l 750 152 l 750 0 l 47 0 l 47 103 l 504 820 l 70 820 l 70 972 l 736 972 l 736 865 "},"Ż":{"ha":796,"x_min":0,"x_max":0,"o":"m 329 1158 l 329 1293 l 466 1293 l 466 1158 m 281 152 l 750 152 l 750 0 l 47 0 l 47 103 l 504 820 l 70 820 l 70 972 l 736 972 l 736 865 "},"Ẓ":{"ha":796,"x_min":0,"x_max":0,"o":"m 281 152 l 750 152 l 750 0 l 47 0 l 47 103 l 504 820 l 70 820 l 70 972 l 736 972 l 736 865 m 339 -250 l 339 -114 l 476 -114 l 476 -250 "},"a":{"ha":746,"x_min":0,"x_max":0,"o":"m 90 648 b 371 714 184 690 278 714 b 655 457 528 714 655 649 l 655 75 l 679 0 l 502 0 l 492 33 b 277 -19 434 -1 343 -19 b 55 207 89 -19 55 116 b 317 440 57 313 97 440 b 484 408 365 440 421 434 l 484 473 b 363 586 484 563 432 586 b 133 529 295 586 218 569 m 484 289 b 332 325 422 325 373 325 b 225 213 240 325 225 263 b 328 121 225 171 237 121 b 484 160 370 121 438 132 "},"á":{"ha":746,"x_min":0,"x_max":0,"o":"m 225 876 l 357 1042 l 521 1042 l 355 876 m 90 648 b 371 714 184 690 278 714 b 655 457 528 714 655 649 l 655 75 l 679 0 l 502 0 l 492 33 b 277 -19 434 -1 343 -19 b 55 207 89 -19 55 116 b 317 440 57 313 97 440 b 484 408 365 440 421 434 l 484 473 b 363 586 484 563 432 586 b 133 529 295 586 218 569 m 484 289 b 332 325 422 325 373 325 b 225 213 240 325 225 263 b 328 121 225 171 237 121 b 484 160 370 121 438 132 "},"ă":{"ha":746,"x_min":0,"x_max":0,"o":"m 575 1042 b 385 855 575 907 487 855 l 360 855 b 170 1042 257 855 170 907 l 289 1042 b 360 963 289 986 328 963 l 385 963 b 455 1042 417 963 455 986 m 90 648 b 371 714 184 690 278 714 b 655 457 528 714 655 649 l 655 75 l 679 0 l 502 0 l 492 33 b 277 -19 434 -1 343 -19 b 55 207 89 -19 55 116 b 317 440 57 313 97 440 b 484 408 365 440 420 434 l 484 473 b 363 586 484 563 432 586 b 133 529 295 586 218 569 m 484 289 b 332 325 422 325 373 325 b 225 213 240 325 225 263 b 328 121 225 171 237 121 b 484 160 370 121 438 132 "},"ǎ":{"ha":746,"x_min":0,"x_max":0,"o":"m 333 876 l 201 1042 l 321 1042 l 372 989 l 424 1042 l 545 1042 l 412 876 m 90 648 b 371 714 184 690 278 714 b 655 457 528 714 655 649 l 655 75 l 679 0 l 502 0 l 492 33 b 277 -19 434 -1 343 -19 b 55 207 89 -19 55 116 b 317 440 57 313 97 440 b 484 408 365 440 421 434 l 484 473 b 363 586 484 563 432 586 b 133 529 295 586 218 569 m 484 289 b 332 325 422 325 373 325 b 225 213 240 325 225 263 b 328 121 225 171 237 121 b 484 160 370 121 438 132 "},"â":{"ha":746,"x_min":0,"x_max":0,"o":"m 424 876 l 372 928 l 321 876 l 201 876 l 333 1042 l 412 1042 l 544 876 m 90 648 b 371 714 184 690 278 714 b 655 457 528 714 655 649 l 655 75 l 679 0 l 502 0 l 492 33 b 277 -19 434 -1 343 -19 b 55 207 89 -19 55 116 b 317 440 57 313 97 440 b 484 408 365 440 420 434 l 484 473 b 363 586 484 563 432 586 b 133 529 295 586 218 569 m 484 289 b 332 325 422 325 373 325 b 225 213 240 325 225 263 b 328 121 225 171 237 121 b 484 160 370 121 438 132 "},"ậ":{"ha":746,"x_min":0,"x_max":0,"o":"m 424 876 l 372 928 l 321 876 l 201 876 l 333 1042 l 412 1042 l 544 876 m 90 648 b 371 714 184 690 278 714 b 655 457 528 714 655 649 l 655 75 l 679 0 l 502 0 l 492 33 b 277 -19 434 -1 343 -19 b 55 207 89 -19 55 116 b 317 440 57 313 97 440 b 484 408 365 440 420 434 l 484 473 b 363 586 484 563 432 586 b 133 529 295 586 218 569 m 484 289 b 332 325 422 325 373 325 b 225 213 240 325 225 263 b 328 121 225 171 237 121 b 484 160 370 121 438 132 m 310 -250 l 310 -113 l 447 -113 l 447 -250 "},"ä":{"ha":746,"x_min":0,"x_max":0,"o":"m 197 888 l 197 1024 l 333 1024 l 333 888 m 412 888 l 412 1024 l 549 1024 l 549 888 m 90 648 b 371 714 184 690 278 714 b 655 457 528 714 655 649 l 655 75 l 679 0 l 502 0 l 492 33 b 277 -19 434 -1 343 -19 b 55 207 89 -19 55 116 b 317 440 57 313 97 440 b 484 408 365 440 421 434 l 484 473 b 363 586 484 563 432 586 b 133 529 295 586 218 569 m 484 289 b 332 325 422 325 373 325 b 225 213 240 325 225 263 b 328 121 225 171 237 121 b 484 160 370 121 438 132 "},"ǟ":{"ha":746,"x_min":0,"x_max":0,"o":"m 154 1042 l 154 1178 l 591 1178 l 591 1042 m 197 837 l 197 972 l 333 972 l 333 837 m 412 837 l 412 972 l 549 972 l 549 837 m 90 648 b 371 714 184 690 278 714 b 655 457 528 714 655 649 l 655 75 l 679 0 l 502 0 l 492 33 b 277 -19 434 -1 343 -19 b 55 207 89 -19 55 116 b 317 440 57 313 97 440 b 484 408 365 440 421 434 l 484 473 b 363 586 484 563 432 586 b 133 529 295 586 218 569 m 484 289 b 332 325 422 325 373 325 b 225 213 240 325 225 263 b 328 121 225 171 237 121 b 484 160 370 121 438 132 "},"ạ":{"ha":746,"x_min":0,"x_max":0,"o":"m 90 648 b 371 714 184 690 278 714 b 655 457 528 714 655 649 l 655 75 l 679 0 l 502 0 l 492 33 b 277 -19 434 -1 343 -19 b 55 207 89 -19 55 116 b 317 440 57 313 97 440 b 484 408 365 440 421 434 l 484 473 b 363 586 484 563 432 586 b 133 529 295 586 218 569 m 484 289 b 332 325 422 325 373 325 b 225 213 240 325 225 263 b 328 121 225 171 237 121 b 484 160 370 121 438 132 m 310 -250 l 310 -113 l 447 -113 l 447 -250 "},"à":{"ha":746,"x_min":0,"x_max":0,"o":"m 392 876 l 224 1042 l 388 1042 l 521 876 m 90 648 b 371 714 184 690 278 714 b 655 457 528 714 655 649 l 655 75 l 679 0 l 502 0 l 492 33 b 277 -19 434 -1 343 -19 b 55 207 89 -19 55 116 b 317 440 57 313 97 440 b 484 408 365 440 421 434 l 484 473 b 363 586 484 563 432 586 b 133 529 295 586 218 569 m 484 289 b 332 325 422 325 373 325 b 225 213 240 325 225 263 b 328 121 225 171 237 121 b 484 160 370 121 438 132 "},"ā":{"ha":746,"x_min":0,"x_max":0,"o":"m 154 889 l 154 1024 l 591 1024 l 591 889 m 90 648 b 371 714 184 690 278 714 b 655 457 528 714 655 649 l 655 75 l 679 0 l 502 0 l 492 33 b 277 -19 434 -1 343 -19 b 55 207 89 -19 55 116 b 317 440 57 313 97 440 b 484 408 365 440 421 434 l 484 473 b 363 586 484 563 432 586 b 133 529 295 586 218 569 m 484 289 b 332 325 422 325 373 325 b 225 213 240 325 225 263 b 328 121 225 171 237 121 b 484 160 370 121 438 132 "},"ą":{"ha":746,"x_min":0,"x_max":0,"o":"m 90 648 b 371 714 184 690 278 714 b 655 457 528 714 655 649 l 655 75 l 679 0 l 622 -11 b 547 -51 556 -11 547 -29 b 713 -158 547 -130 575 -158 l 713 -241 b 460 -70 502 -241 460 -195 b 502 0 460 -34 469 -11 l 492 33 b 277 -19 434 -1 343 -19 b 55 207 89 -19 55 116 b 317 440 57 313 97 440 b 484 408 365 440 421 434 l 484 473 b 363 586 484 563 432 586 b 133 529 295 586 218 569 m 484 289 b 332 325 422 325 373 325 b 225 213 240 325 225 263 b 328 121 225 171 237 121 b 484 160 370 121 438 132 "},"å":{"ha":746,"x_min":0,"x_max":0,"o":"m 372 1052 b 531 893 461 1052 531 981 b 372 736 531 805 461 736 b 215 893 284 736 215 805 b 372 1052 215 981 284 1052 m 372 950 b 317 893 342 950 317 925 b 372 838 317 863 342 838 b 429 893 404 838 429 863 b 372 950 429 925 404 950 m 90 648 b 371 714 184 690 278 714 b 655 457 528 714 655 649 l 655 75 l 679 0 l 502 0 l 492 33 b 277 -19 434 -1 343 -19 b 55 207 89 -19 55 116 b 317 440 57 313 97 440 b 484 408 365 440 421 434 l 484 473 b 363 586 484 563 432 586 b 133 529 295 586 218 569 m 484 289 b 332 325 422 325 373 325 b 225 213 240 325 225 263 b 328 121 225 171 237 121 b 484 160 370 121 438 132 "},"ã":{"ha":746,"x_min":0,"x_max":0,"o":"m 182 900 b 302 1044 202 965 232 1044 b 347 1030 319 1044 334 1037 l 386 1005 b 417 995 396 999 406 995 b 457 1043 440 995 453 1024 l 564 1020 b 451 870 554 971 518 870 b 396 884 431 870 413 876 l 351 911 b 328 919 346 914 335 919 b 287 866 309 919 298 896 m 90 648 b 371 714 184 690 278 714 b 655 457 528 714 655 649 l 655 75 l 679 0 l 502 0 l 492 33 b 277 -19 434 -1 343 -19 b 55 207 89 -19 55 116 b 317 440 57 313 97 440 b 484 408 365 440 421 434 l 484 473 b 363 586 484 563 432 586 b 133 529 295 586 218 569 m 484 289 b 332 325 422 325 373 325 b 225 213 240 325 225 263 b 328 121 225 171 237 121 b 484 160 370 121 438 132 "},"æ":{"ha":1264,"x_min":0,"x_max":0,"o":"m 90 649 b 371 714 184 690 278 714 b 637 561 495 714 599 674 b 904 714 684 652 774 714 b 1212 389 1107 714 1212 564 l 1212 288 l 769 288 l 769 266 b 910 112 770 165 815 112 b 1149 173 966 112 1055 123 l 1204 57 b 913 -19 1071 -11 947 -19 b 661 88 796 -19 711 20 l 665 47 l 679 0 l 502 0 l 492 33 b 277 -19 434 -1 343 -19 b 55 207 89 -19 55 116 b 317 440 57 313 97 440 b 484 408 365 440 421 434 l 484 473 b 363 586 484 563 432 586 b 133 529 295 586 218 569 m 1038 428 b 904 583 1038 521 987 583 b 770 430 822 583 770 522 l 770 398 l 1038 398 m 484 289 b 332 326 422 325 373 326 b 225 213 240 326 225 263 b 328 121 225 172 237 121 b 484 160 370 121 438 132 "},"b":{"ha":736,"x_min":0,"x_max":0,"o":"m 244 662 b 442 716 306 696 376 716 b 690 428 571 716 690 639 l 690 272 b 402 -15 690 115 593 -15 b 72 42 300 -15 165 10 l 72 972 l 244 972 m 523 414 b 395 575 523 526 471 575 b 244 524 350 575 299 558 l 244 152 b 397 126 291 138 360 126 b 523 287 482 126 523 194 "},"ḅ":{"ha":736,"x_min":0,"x_max":0,"o":"m 244 662 b 442 716 306 696 376 716 b 690 428 571 716 690 639 l 690 272 b 402 -15 690 115 593 -15 b 72 42 300 -15 165 10 l 72 972 l 244 972 m 523 414 b 395 575 523 526 471 575 b 244 524 350 575 299 558 l 244 152 b 397 126 291 138 360 126 b 523 287 482 126 523 194 m 286 -250 l 286 -114 l 424 -114 l 424 -250 "},"c":{"ha":685,"x_min":0,"x_max":0,"o":"m 640 39 b 381 -20 514 -20 388 -20 b 55 348 84 -20 55 159 b 381 713 55 537 84 713 b 637 655 388 713 515 713 l 589 517 b 381 571 476 571 386 571 b 226 349 240 571 226 469 b 381 124 226 226 240 124 b 586 177 386 124 476 124 "},"ć":{"ha":685,"x_min":0,"x_max":0,"o":"m 187 876 l 319 1042 l 483 1042 l 317 876 m 640 39 b 381 -20 514 -20 388 -20 b 55 348 84 -20 55 159 b 381 713 55 537 84 713 b 637 655 388 713 515 713 l 589 517 b 381 571 476 571 386 571 b 226 349 240 571 226 469 b 381 124 226 226 240 124 b 586 177 386 124 476 124 "},"č":{"ha":685,"x_min":0,"x_max":0,"o":"m 296 876 l 164 1042 l 283 1042 l 335 989 l 387 1042 l 507 1042 l 375 876 m 640 39 b 381 -20 514 -20 388 -20 b 55 348 84 -20 55 159 b 381 713 55 537 84 713 b 637 655 388 713 515 713 l 589 517 b 381 571 476 571 386 571 b 226 349 240 571 226 469 b 381 124 226 226 240 124 b 586 177 386 124 476 124 "},"ç":{"ha":671,"x_min":0,"x_max":0,"o":"m 284 -13 b 52 348 75 23 52 182 b 379 713 52 537 82 713 b 635 655 385 713 512 713 l 586 517 b 379 571 474 571 384 571 b 224 349 238 571 224 469 b 379 124 224 226 238 124 b 584 176 384 124 474 124 l 638 39 b 424 -15 555 1 459 -10 b 385 -18 410 -17 396 -18 b 362 -17 376 -18 369 -17 l 362 -44 l 390 -44 b 487 -147 467 -44 487 -101 b 202 -272 487 -268 410 -272 l 202 -200 b 380 -147 346 -200 380 -199 b 331 -110 380 -128 372 -110 l 283 -110 "},"ċ":{"ha":685,"x_min":0,"x_max":0,"o":"m 296 888 l 296 1024 l 434 1024 l 434 888 m 640 39 b 381 -20 514 -20 388 -20 b 55 348 84 -20 55 159 b 381 713 55 537 84 713 b 637 655 388 713 515 713 l 589 517 b 381 571 476 571 386 571 b 226 349 240 571 226 469 b 381 124 226 226 240 124 b 586 177 386 124 476 124 "},"d":{"ha":778,"x_min":0,"x_max":0,"o":"m 697 0 l 523 0 l 513 37 b 312 -19 453 2 375 -19 b 55 284 89 -19 55 137 l 55 428 b 302 716 55 639 173 716 b 501 662 369 716 439 696 l 501 972 l 672 972 l 672 78 m 501 524 b 349 575 446 558 394 575 b 222 414 273 575 222 526 l 222 294 b 344 126 222 203 251 126 b 501 169 387 126 447 143 "},"ð":{"ha":782,"x_min":0,"x_max":0,"o":"m 639 925 b 713 652 683 873 713 790 l 713 271 b 370 -18 713 97 576 -18 b 49 271 230 -18 49 37 l 49 375 b 356 626 49 545 186 626 b 540 602 412 626 476 615 l 540 662 b 514 797 540 723 530 766 l 436 719 l 364 792 l 436 864 b 334 887 406 880 372 887 b 297 885 322 887 310 887 b 144 830 246 877 187 854 l 83 968 b 360 1042 145 996 253 1042 b 556 985 442 1042 508 1019 l 636 1066 l 709 995 m 540 456 b 356 482 476 471 418 482 b 221 375 274 482 221 453 l 221 271 b 370 125 221 150 299 125 b 540 271 475 125 540 178 "},"ď":{"ha":1033,"x_min":0,"x_max":0,"o":"m 979 839 b 778 689 979 736 880 681 l 778 801 b 805 839 796 810 805 817 l 805 972 l 979 972 m 697 0 l 523 0 l 513 37 b 312 -19 453 2 375 -19 b 55 284 89 -19 55 137 l 55 428 b 302 716 55 639 173 716 b 501 662 369 716 439 696 l 501 972 l 672 972 l 672 78 m 501 524 b 349 575 446 558 394 575 b 222 414 273 575 222 526 l 222 294 b 344 126 222 203 251 126 b 501 169 387 126 447 143 "},"ḓ":{"ha":778,"x_min":0,"x_max":0,"o":"m 697 0 l 523 0 l 513 37 b 312 -19 453 2 375 -19 b 55 284 89 -19 55 137 l 55 428 b 302 716 55 639 173 716 b 501 662 369 716 439 696 l 501 972 l 672 972 l 672 78 m 501 524 b 349 575 446 558 394 575 b 222 414 273 575 222 526 l 222 294 b 344 126 222 203 251 126 b 501 169 387 126 447 143 m 434 -250 l 383 -197 l 331 -250 l 211 -250 l 343 -83 l 422 -83 l 555 -250 "},"đ":{"ha":813,"x_min":0,"x_max":0,"o":"m 672 783 l 672 78 l 697 0 l 523 0 l 513 37 b 312 -19 453 2 375 -19 b 55 284 89 -19 55 137 l 55 428 b 302 716 55 639 173 716 b 501 662 369 716 439 696 l 501 783 l 347 783 l 347 899 l 501 899 l 501 972 l 672 972 l 672 899 l 783 899 l 783 783 m 222 294 b 344 126 222 203 251 126 b 501 169 387 126 447 143 l 501 524 b 349 575 446 558 394 575 b 222 414 273 575 222 526 "},"ḍ":{"ha":778,"x_min":0,"x_max":0,"o":"m 697 0 l 523 0 l 513 37 b 312 -19 453 2 375 -19 b 55 284 89 -19 55 137 l 55 428 b 302 716 55 639 173 716 b 501 662 369 716 439 696 l 501 972 l 672 972 l 672 78 m 501 524 b 349 575 446 558 394 575 b 222 414 273 575 222 526 l 222 294 b 344 126 222 203 251 126 b 501 169 387 126 447 143 m 316 -250 l 316 -114 l 453 -114 l 453 -250 "},"ḏ":{"ha":778,"x_min":0,"x_max":0,"o":"m 697 0 l 523 0 l 513 37 b 312 -19 453 2 375 -19 b 55 284 89 -19 55 137 l 55 428 b 302 716 55 639 173 716 b 501 662 369 716 439 696 l 501 972 l 672 972 l 672 78 m 501 524 b 349 575 446 558 394 575 b 222 414 273 575 222 526 l 222 294 b 344 126 222 203 251 126 b 501 169 387 126 447 143 m 162 -256 l 162 -121 l 599 -121 l 599 -256 "},"e":{"ha":722,"x_min":0,"x_max":0,"o":"m 55 389 b 363 714 55 563 160 714 b 672 389 566 714 672 563 l 672 287 l 228 287 l 228 266 b 369 111 229 165 274 111 b 608 172 425 111 514 123 l 663 57 b 372 -19 530 -11 406 -19 b 55 280 166 -19 55 98 m 497 428 b 363 583 497 521 446 583 b 229 429 281 583 229 521 l 229 397 l 497 397 "},"é":{"ha":718,"x_min":0,"x_max":0,"o":"m 211 876 l 343 1042 l 507 1042 l 341 876 m 55 389 b 363 714 55 563 160 714 b 672 389 566 714 672 563 l 672 287 l 228 287 l 228 266 b 369 111 229 165 274 111 b 608 172 425 111 514 123 l 663 57 b 372 -19 530 -11 406 -19 b 55 280 166 -19 55 98 m 497 428 b 363 583 497 521 446 583 b 229 429 281 583 229 521 l 229 397 l 497 397 "},"ě":{"ha":722,"x_min":0,"x_max":0,"o":"m 319 876 l 187 1042 l 307 1042 l 359 989 l 410 1042 l 531 1042 l 398 876 m 55 389 b 363 714 55 563 160 714 b 672 389 566 714 672 563 l 672 287 l 228 287 l 228 266 b 369 111 229 165 274 111 b 608 172 426 111 514 123 l 663 57 b 372 -19 530 -11 406 -19 b 55 280 166 -19 55 98 m 497 428 b 363 583 497 521 446 583 b 229 429 281 583 229 521 l 229 397 l 497 397 "},"ȩ":{"ha":722,"x_min":0,"x_max":0,"o":"m 55 389 b 363 713 55 563 160 713 b 672 389 566 713 672 563 l 672 287 l 228 287 l 228 266 b 369 111 229 165 274 111 b 608 172 425 111 514 123 l 663 57 b 438 -11 577 14 487 -3 b 377 -17 415 -14 394 -17 l 377 -43 l 405 -43 b 502 -144 481 -43 502 -99 b 216 -271 502 -267 424 -271 l 216 -199 b 395 -144 360 -199 395 -197 b 345 -108 395 -126 387 -108 l 298 -108 l 298 -14 b 55 280 139 12 55 121 m 497 428 b 363 583 497 521 446 583 b 229 429 281 583 229 521 l 229 397 l 497 397 "},"ê":{"ha":718,"x_min":0,"x_max":0,"o":"m 410 876 l 359 928 l 307 876 l 187 876 l 319 1042 l 398 1042 l 531 876 m 55 389 b 363 714 55 563 160 714 b 672 389 566 714 672 563 l 672 287 l 228 287 l 228 266 b 369 111 229 165 274 111 b 608 172 425 111 514 123 l 663 57 b 372 -19 530 -11 406 -19 b 55 280 166 -19 55 98 m 497 428 b 363 583 497 521 446 583 b 229 429 281 583 229 521 l 229 397 l 497 397 "},"ệ":{"ha":722,"x_min":0,"x_max":0,"o":"m 410 876 l 359 928 l 307 876 l 187 876 l 319 1042 l 398 1042 l 531 876 m 55 389 b 363 714 55 563 160 714 b 672 389 566 714 672 563 l 672 287 l 228 287 l 228 266 b 369 111 229 165 274 111 b 608 172 425 111 514 123 l 663 57 b 372 -19 530 -11 406 -19 b 55 280 166 -19 55 98 m 497 428 b 363 583 497 521 446 583 b 229 429 281 583 229 521 l 229 397 l 497 397 m 291 -240 l 291 -105 l 428 -105 l 428 -240 "},"ë":{"ha":718,"x_min":0,"x_max":0,"o":"m 183 888 l 183 1024 l 320 1024 l 320 888 m 399 888 l 399 1024 l 535 1024 l 535 888 m 55 389 b 363 714 55 563 160 714 b 672 389 566 714 672 563 l 672 287 l 228 287 l 228 266 b 369 111 229 165 274 111 b 608 172 426 111 514 123 l 663 57 b 372 -19 530 -11 406 -19 b 55 280 166 -19 55 98 m 497 428 b 363 583 497 521 446 583 b 229 429 281 583 229 521 l 229 397 l 497 397 "},"ė":{"ha":722,"x_min":0,"x_max":0,"o":"m 291 888 l 291 1024 l 428 1024 l 428 888 m 55 389 b 363 714 55 563 160 714 b 672 389 566 714 672 563 l 672 287 l 228 287 l 228 266 b 369 111 229 165 274 111 b 608 172 425 111 514 123 l 663 57 b 372 -19 530 -11 406 -19 b 55 280 166 -19 55 98 m 497 428 b 363 583 497 521 446 583 b 229 429 281 583 229 521 l 229 397 l 497 397 "},"ẹ":{"ha":722,"x_min":0,"x_max":0,"o":"m 55 389 b 363 714 55 563 160 714 b 672 389 566 714 672 563 l 672 287 l 228 287 l 228 266 b 369 111 229 165 274 111 b 608 172 425 111 514 123 l 663 57 b 372 -19 530 -11 406 -19 b 55 280 166 -19 55 98 m 497 428 b 363 583 497 521 446 583 b 229 429 281 583 229 521 l 229 397 l 497 397 m 291 -240 l 291 -105 l 428 -105 l 428 -240 "},"è":{"ha":718,"x_min":0,"x_max":0,"o":"m 379 876 l 211 1042 l 375 1042 l 508 876 m 55 389 b 363 714 55 563 160 714 b 672 389 566 714 672 563 l 672 287 l 228 287 l 228 266 b 369 111 229 165 274 111 b 608 172 425 111 514 123 l 663 57 b 372 -19 530 -11 406 -19 b 55 280 166 -19 55 98 m 497 428 b 363 583 497 521 446 583 b 229 429 281 583 229 521 l 229 397 l 497 397 "},"ē":{"ha":722,"x_min":0,"x_max":0,"o":"m 141 889 l 141 1024 l 578 1024 l 578 889 m 55 389 b 363 714 55 563 160 714 b 672 389 566 714 672 563 l 672 287 l 228 287 l 228 266 b 369 111 229 165 274 111 b 608 172 425 111 514 123 l 663 57 b 372 -19 530 -11 406 -19 b 55 280 166 -19 55 98 m 497 428 b 363 583 497 521 446 583 b 229 429 281 583 229 521 l 229 397 l 497 397 "},"ę":{"ha":722,"x_min":0,"x_max":0,"o":"m 55 389 b 363 713 55 563 160 713 b 672 389 566 713 672 563 l 672 287 l 228 287 l 228 266 b 369 111 229 165 274 111 b 608 172 425 111 514 123 l 663 57 b 498 -1 605 27 547 9 b 481 -43 484 -14 481 -31 b 646 -150 481 -122 509 -150 l 646 -233 b 393 -63 436 -233 393 -188 b 400 -18 393 -44 395 -31 b 372 -19 388 -19 378 -19 b 55 280 166 -19 55 98 m 497 428 b 363 583 497 521 446 583 b 229 429 281 583 229 521 l 229 397 l 497 397 "},"ẽ":{"ha":722,"x_min":0,"x_max":0,"o":"m 168 900 b 289 1044 189 965 219 1044 b 334 1030 305 1044 320 1037 l 373 1005 b 403 995 382 999 393 995 b 443 1043 426 995 440 1024 l 550 1020 b 437 870 541 971 504 870 b 383 884 418 870 399 876 l 338 911 b 314 919 332 914 322 919 b 273 866 295 919 285 896 m 55 389 b 363 714 55 563 160 714 b 672 389 566 714 672 563 l 672 287 l 228 287 l 228 266 b 369 111 229 165 274 111 b 608 172 426 111 514 123 l 663 57 b 372 -19 530 -11 406 -19 b 55 280 166 -19 55 98 m 497 428 b 363 583 497 521 446 583 b 229 429 281 583 229 521 l 229 397 l 497 397 "},"f":{"ha":507,"x_min":0,"x_max":0,"o":"m 117 726 b 334 989 122 906 188 989 b 488 968 372 989 437 981 l 488 840 b 392 852 461 845 423 852 b 369 850 384 852 376 851 b 287 724 316 848 288 823 l 287 695 l 465 695 l 465 551 l 287 551 l 287 0 l 116 0 l 116 551 l 37 551 l 37 695 l 117 695 "},"g":{"ha":775,"x_min":0,"x_max":0,"o":"m 55 428 b 308 716 55 639 176 716 b 511 661 376 716 448 696 l 513 680 l 522 710 l 694 710 l 673 645 l 673 -14 b 389 -271 673 -206 546 -271 b 108 -204 329 -271 208 -246 l 151 -87 b 381 -139 251 -135 339 -139 b 502 -26 450 -139 502 -117 l 502 39 b 335 -3 444 13 383 -3 b 55 301 112 -3 55 154 m 502 528 b 349 579 446 562 394 579 b 222 418 273 579 222 531 l 222 307 b 344 139 222 217 251 139 b 502 182 387 139 447 156 "},"ğ":{"ha":775,"x_min":0,"x_max":0,"o":"m 583 1030 b 393 843 583 896 495 843 l 368 843 b 178 1030 265 843 178 896 l 297 1030 b 368 951 297 975 336 951 l 393 951 b 463 1030 424 951 463 975 m 55 428 b 308 716 55 639 176 716 b 511 661 376 716 448 696 l 513 680 l 522 710 l 694 710 l 673 645 l 673 -14 b 389 -271 673 -206 546 -271 b 108 -204 329 -271 208 -246 l 151 -87 b 381 -139 251 -135 339 -139 b 502 -26 450 -139 502 -117 l 502 39 b 335 -3 444 13 383 -3 b 55 301 112 -3 55 154 m 502 528 b 349 579 446 562 394 579 b 222 418 273 579 222 531 l 222 307 b 344 139 222 217 251 139 b 502 182 387 139 447 156 "},"ǧ":{"ha":775,"x_min":0,"x_max":0,"o":"m 341 864 l 209 1030 l 329 1030 l 380 978 l 432 1030 l 552 1030 l 420 864 m 55 428 b 308 716 55 639 176 716 b 511 661 376 716 448 696 l 513 680 l 522 710 l 694 710 l 673 645 l 673 -14 b 389 -271 673 -206 546 -271 b 108 -204 329 -271 208 -246 l 151 -87 b 381 -139 251 -135 339 -139 b 502 -26 450 -139 502 -117 l 502 39 b 335 -3 444 13 383 -3 b 55 301 112 -3 55 154 m 502 528 b 349 579 446 562 394 579 b 222 418 273 579 222 531 l 222 307 b 344 139 222 217 251 139 b 502 182 387 139 447 156 "},"ģ":{"ha":775,"x_min":0,"x_max":0,"o":"m 448 963 b 425 932 433 956 425 949 l 425 822 l 297 822 l 297 932 b 448 1046 297 1009 371 1052 m 55 428 b 308 716 55 639 176 716 b 511 661 376 716 448 696 l 513 680 l 522 710 l 694 710 l 673 645 l 673 -14 b 389 -271 673 -206 546 -271 b 108 -204 329 -271 208 -246 l 151 -88 b 381 -139 251 -135 339 -139 b 502 -26 450 -139 502 -117 l 502 39 b 335 -3 444 13 383 -3 b 55 301 112 -3 55 154 m 502 528 b 349 579 446 562 394 579 b 222 418 273 579 222 531 l 222 307 b 344 139 222 217 251 139 b 502 182 387 139 447 156 "},"ġ":{"ha":775,"x_min":0,"x_max":0,"o":"m 312 877 l 312 1012 l 449 1012 l 449 877 m 55 428 b 308 716 55 639 176 716 b 511 661 376 716 448 696 l 513 680 l 522 710 l 694 710 l 673 645 l 673 -14 b 389 -271 673 -206 546 -271 b 108 -204 329 -271 208 -246 l 151 -87 b 381 -139 251 -135 339 -139 b 502 -26 450 -139 502 -117 l 502 39 b 335 -3 444 13 383 -3 b 55 301 112 -3 55 154 m 502 528 b 349 579 446 562 394 579 b 222 418 273 579 222 531 l 222 307 b 344 139 222 217 251 139 b 502 182 387 139 447 156 "},"h":{"ha":789,"x_min":0,"x_max":0,"o":"m 255 675 b 440 713 318 703 384 713 b 718 433 622 713 718 595 l 718 0 l 547 0 l 547 433 b 440 571 547 518 508 568 b 255 524 386 575 320 559 l 255 0 l 84 0 l 84 972 l 255 972 "},"ħ":{"ha":829,"x_min":0,"x_max":0,"o":"m 481 904 l 481 778 l 298 778 l 298 675 b 484 713 361 703 427 713 b 762 433 665 713 762 595 l 762 0 l 590 0 l 590 433 b 484 571 590 518 551 568 b 298 524 429 575 363 559 l 298 0 l 127 0 l 127 778 l 15 778 l 15 904 l 127 904 l 127 972 l 298 972 l 298 904 "},"ḥ":{"ha":789,"x_min":0,"x_max":0,"o":"m 255 675 b 440 713 318 703 384 713 b 718 433 622 713 718 595 l 718 0 l 547 0 l 547 433 b 440 571 547 518 508 568 b 255 524 386 575 320 559 l 255 0 l 84 0 l 84 972 l 255 972 m 318 -250 l 318 -114 l 455 -114 l 455 -250 "},"i":{"ha":328,"x_min":0,"x_max":0,"o":"m 80 834 l 80 972 l 253 972 l 253 834 m 81 0 l 81 694 l 252 694 l 252 0 "},"ı":{"ha":324,"x_min":0,"x_max":0,"o":"m 81 0 l 81 694 l 252 694 l 252 0 "},"í":{"ha":324,"x_min":0,"x_max":0,"o":"m 17 876 l 149 1042 l 313 1042 l 147 876 m 81 0 l 81 694 l 252 694 l 252 0 "},"ǐ":{"ha":324,"x_min":0,"x_max":0,"o":"m 126 876 l -7 1042 l 113 1042 l 165 989 l 217 1042 l 337 1042 l 204 876 m 81 0 l 81 694 l 252 694 l 252 0 "},"î":{"ha":324,"x_min":0,"x_max":0,"o":"m 217 876 l 165 928 l 113 876 l -7 876 l 126 1042 l 204 1042 l 337 876 m 81 0 l 81 694 l 252 694 l 252 0 "},"ï":{"ha":324,"x_min":0,"x_max":0,"o":"m -11 888 l -11 1024 l 126 1024 l 126 888 m 205 888 l 205 1024 l 341 1024 l 341 888 m 81 0 l 81 694 l 252 694 l 252 0 "},"ḯ":{"ha":324,"x_min":0,"x_max":0,"o":"m 17 1042 l 149 1208 l 313 1208 l 147 1042 m -11 837 l -11 972 l 126 972 l 126 837 m 205 837 l 205 972 l 341 972 l 341 837 m 81 0 l 81 694 l 252 694 l 252 0 "},"ị":{"ha":328,"x_min":0,"x_max":0,"o":"m 79 834 l 79 972 l 252 972 l 252 834 m 80 0 l 80 694 l 251 694 l 251 0 m 97 -250 l 97 -114 l 234 -114 l 234 -250 "},"ì":{"ha":324,"x_min":0,"x_max":0,"o":"m 185 876 l 17 1042 l 181 1042 l 314 876 m 81 0 l 81 694 l 252 694 l 252 0 "},"ĳ":{"ha":686,"x_min":0,"x_max":0,"o":"m 80 834 l 80 972 l 253 972 l 253 834 m 438 834 l 438 972 l 611 972 l 611 834 m 609 -104 b 437 -268 609 -217 542 -268 b 299 -235 409 -268 351 -260 l 332 -126 b 394 -136 367 -137 388 -137 b 439 -67 425 -132 439 -110 l 439 695 l 609 695 m 81 0 l 81 694 l 252 694 l 252 0 "},"ī":{"ha":324,"x_min":0,"x_max":0,"o":"m -54 889 l -54 1024 l 384 1024 l 384 889 m 81 0 l 81 694 l 252 694 l 252 0 "},"į":{"ha":324,"x_min":0,"x_max":0,"o":"m 97 888 l 97 1024 l 234 1024 l 234 888 m 252 0 b 178 -40 187 0 178 -18 b 343 -147 178 -119 206 -147 l 343 -232 b 90 -60 133 -232 90 -185 b 133 10 90 -24 99 -1 l 81 22 l 81 694 l 252 694 "},"ĩ":{"ha":324,"x_min":0,"x_max":0,"o":"m -26 900 b 95 1044 -6 965 25 1044 b 140 1030 112 1044 126 1037 l 179 1005 b 209 995 188 999 199 995 b 249 1043 233 995 246 1024 l 356 1020 b 243 870 347 971 311 870 b 189 884 224 870 206 876 l 144 911 b 120 919 139 914 128 919 b 79 866 101 919 91 896 m 81 0 l 81 694 l 252 694 l 252 0 "},"j":{"ha":358,"x_min":0,"x_max":0,"o":"m 110 834 l 110 972 l 283 972 l 283 834 m 281 -104 b 109 -268 281 -217 213 -268 b -29 -235 80 -268 23 -260 l 4 -126 b 66 -136 39 -137 60 -137 b 111 -67 97 -132 111 -110 l 111 695 l 281 695 "},"k":{"ha":757,"x_min":0,"x_max":0,"o":"m 509 694 l 718 694 l 374 363 l 739 0 l 530 0 l 255 258 l 255 0 l 84 0 l 84 972 l 256 972 l 256 460 "},"ķ":{"ha":757,"x_min":0,"x_max":0,"o":"m 509 694 l 718 694 l 374 363 l 739 0 l 530 0 l 255 258 l 255 0 l 84 0 l 84 972 l 256 972 l 256 460 m 449 -185 b 298 -300 449 -262 374 -306 l 298 -217 b 320 -185 313 -210 320 -203 l 320 -75 l 449 -75 "},"l":{"ha":328,"x_min":0,"x_max":0,"o":"m 84 0 l 84 972 l 255 972 l 255 0 "},"ĺ":{"ha":328,"x_min":0,"x_max":0,"o":"m 21 1153 l 153 1319 l 317 1319 l 151 1153 m 84 0 l 84 972 l 255 972 l 255 0 "},"ľ":{"ha":578,"x_min":0,"x_max":0,"o":"m 84 0 l 84 972 l 255 972 l 255 0 m 533 839 b 332 689 533 736 434 681 l 332 801 b 359 839 351 810 359 817 l 359 972 l 533 972 "},"ḽ":{"ha":328,"x_min":0,"x_max":0,"o":"m 84 0 l 84 972 l 255 972 l 255 0 m 216 -250 l 165 -197 l 113 -250 l -7 -250 l 125 -83 l 204 -83 l 337 -250 "},"ļ":{"ha":328,"x_min":0,"x_max":0,"o":"m 84 0 l 84 972 l 255 972 l 255 0 m 236 -197 b 85 -311 236 -274 161 -317 l 85 -228 b 107 -197 100 -221 107 -214 l 107 -86 l 236 -86 "},"ŀ":{"ha":583,"x_min":0,"x_max":0,"o":"m 84 0 l 84 972 l 255 972 l 255 0 m 382 329 l 382 514 l 557 514 l 557 329 "},"ḷ":{"ha":328,"x_min":0,"x_max":0,"o":"m 84 0 l 84 972 l 255 972 l 255 0 m 98 -250 l 98 -114 l 236 -114 l 236 -250 "},"ł":{"ha":538,"x_min":0,"x_max":0,"o":"m 516 719 l 516 533 l 323 395 l 323 0 l 151 0 l 151 275 l 32 191 l 32 379 l 151 464 l 151 972 l 323 972 l 323 583 "},"m":{"ha":1142,"x_min":0,"x_max":0,"o":"m 252 658 b 413 714 298 688 356 711 b 437 715 421 714 429 715 b 608 638 515 715 570 684 b 806 714 669 685 747 710 b 832 715 815 714 824 715 b 1062 429 1001 715 1062 569 l 1062 0 l 892 0 l 892 429 b 801 570 892 503 878 570 b 659 525 754 570 705 554 b 669 429 667 495 669 460 l 669 0 l 498 0 l 498 429 b 407 570 498 503 485 570 b 267 526 358 570 305 551 l 267 0 l 96 0 l 96 620 l 72 694 l 243 694 "},"ḿ":{"ha":1142,"x_min":0,"x_max":0,"o":"m 444 876 l 576 1042 l 740 1042 l 574 876 m 252 658 b 413 714 298 688 356 711 b 437 715 421 714 429 715 b 608 638 515 715 570 684 b 806 714 669 685 747 710 b 832 715 815 714 824 715 b 1062 429 1001 715 1062 569 l 1062 0 l 892 0 l 892 429 b 801 570 892 503 878 570 b 659 525 754 570 705 554 b 669 429 667 495 669 460 l 669 0 l 498 0 l 498 429 b 407 570 498 503 485 570 b 267 526 358 570 305 551 l 267 0 l 96 0 l 96 620 l 72 694 l 243 694 "},"n":{"ha":810,"x_min":0,"x_max":0,"o":"m 253 656 b 471 714 322 697 410 714 b 731 434 641 714 731 590 l 731 0 l 560 0 l 560 434 b 453 571 560 518 521 568 b 268 525 401 575 333 560 l 268 0 l 97 0 l 97 617 l 72 694 l 243 694 "},"ń":{"ha":810,"x_min":0,"x_max":0,"o":"m 254 876 l 386 1042 l 550 1042 l 384 876 m 253 656 b 471 714 322 697 410 714 b 731 434 641 714 731 590 l 731 0 l 560 0 l 560 434 b 453 571 560 518 521 568 b 268 525 401 575 333 560 l 268 0 l 97 0 l 97 617 l 72 694 l 243 694 "},"ň":{"ha":810,"x_min":0,"x_max":0,"o":"m 363 876 l 231 1042 l 350 1042 l 402 989 l 454 1042 l 574 1042 l 442 876 m 253 656 b 471 714 322 697 410 714 b 731 434 641 714 731 590 l 731 0 l 560 0 l 560 434 b 453 571 560 518 521 568 b 268 525 401 575 333 560 l 268 0 l 97 0 l 97 617 l 72 694 l 243 694 "},"ṋ":{"ha":810,"x_min":0,"x_max":0,"o":"m 253 656 b 471 714 322 697 410 714 b 731 434 641 714 731 590 l 731 0 l 560 0 l 560 434 b 453 571 560 518 521 568 b 268 525 401 575 333 560 l 268 0 l 97 0 l 97 617 l 72 694 l 243 694 m 452 -242 l 400 -189 l 349 -242 l 229 -242 l 361 -75 l 440 -75 l 572 -242 "},"ņ":{"ha":810,"x_min":0,"x_max":0,"o":"m 253 656 b 471 714 322 697 410 714 b 731 434 641 714 731 590 l 731 0 l 560 0 l 560 434 b 453 571 560 518 521 568 b 268 525 401 575 333 560 l 268 0 l 97 0 l 97 617 l 72 694 l 243 694 m 471 -189 b 320 -303 471 -265 397 -308 l 320 -218 b 343 -189 335 -212 343 -206 l 343 -78 l 471 -78 "},"ṅ":{"ha":810,"x_min":0,"x_max":0,"o":"m 334 888 l 334 1024 l 471 1024 l 471 888 m 253 656 b 471 714 322 697 410 714 b 731 434 641 714 731 590 l 731 0 l 560 0 l 560 434 b 453 571 560 518 521 568 b 268 525 401 575 333 560 l 268 0 l 97 0 l 97 617 l 72 694 l 243 694 "},"ṇ":{"ha":810,"x_min":0,"x_max":0,"o":"m 253 656 b 471 714 322 697 410 714 b 731 434 641 714 731 590 l 731 0 l 560 0 l 560 434 b 453 571 560 518 521 568 b 268 525 401 575 333 560 l 268 0 l 97 0 l 97 617 l 72 694 l 243 694 m 334 -240 l 334 -106 l 471 -106 l 471 -240 "},"ŋ":{"ha":810,"x_min":0,"x_max":0,"o":"m 253 656 b 471 714 322 697 410 714 b 731 434 641 714 731 590 l 731 -104 b 559 -268 731 -217 663 -268 b 421 -235 530 -268 472 -260 l 454 -126 b 516 -136 488 -137 509 -137 b 560 -65 547 -132 560 -110 l 560 434 b 453 571 560 518 521 568 b 268 525 401 575 333 560 l 268 0 l 97 0 l 97 617 l 72 694 l 243 694 "},"ñ":{"ha":813,"x_min":0,"x_max":0,"o":"m 212 900 b 332 1044 232 965 262 1044 b 377 1030 349 1044 364 1037 l 416 1005 b 446 995 425 999 436 995 b 486 1043 470 995 483 1024 l 593 1020 b 481 870 584 971 548 870 b 426 884 461 870 443 876 l 381 911 b 357 919 376 914 365 919 b 316 866 338 919 328 896 m 253 656 b 471 714 322 697 410 714 b 731 434 641 714 731 590 l 731 0 l 560 0 l 560 434 b 453 571 560 518 521 568 b 268 525 401 575 333 560 l 268 0 l 97 0 l 97 617 l 72 694 l 243 694 "},"o":{"ha":736,"x_min":0,"x_max":0,"o":"m 55 466 b 367 713 55 620 207 713 b 682 466 529 713 682 620 l 682 230 b 367 -19 682 78 531 -19 b 55 230 206 -19 55 78 m 511 466 b 367 571 511 536 448 571 b 226 466 288 571 226 537 l 226 230 b 367 124 226 160 289 124 b 511 230 448 124 511 160 "},"ó":{"ha":736,"x_min":0,"x_max":0,"o":"m 221 876 l 353 1042 l 517 1042 l 351 876 m 55 466 b 367 713 55 620 207 713 b 682 466 529 713 682 620 l 682 230 b 367 -19 682 78 531 -19 b 55 230 206 -19 55 78 m 511 466 b 367 571 511 536 448 571 b 226 466 288 571 226 537 l 226 230 b 367 124 226 160 289 124 b 511 230 448 124 511 160 "},"ǒ":{"ha":736,"x_min":0,"x_max":0,"o":"m 329 876 l 197 1042 l 317 1042 l 368 989 l 420 1042 l 540 1042 l 408 876 m 55 466 b 367 713 55 620 207 713 b 682 466 529 713 682 620 l 682 230 b 367 -19 682 78 531 -19 b 55 230 206 -19 55 78 m 511 466 b 367 571 511 536 448 571 b 226 466 288 571 226 537 l 226 230 b 367 124 226 160 289 124 b 511 230 448 124 511 160 "},"ô":{"ha":736,"x_min":0,"x_max":0,"o":"m 420 876 l 368 928 l 317 876 l 197 876 l 329 1042 l 408 1042 l 540 876 m 55 466 b 367 713 55 620 207 713 b 682 466 529 713 682 620 l 682 230 b 367 -19 682 78 531 -19 b 55 230 206 -19 55 78 m 511 466 b 367 571 511 536 448 571 b 226 466 288 571 226 537 l 226 230 b 367 124 226 160 289 124 b 511 230 448 124 511 160 "},"ộ":{"ha":736,"x_min":0,"x_max":0,"o":"m 418 876 l 367 928 l 315 876 l 195 876 l 327 1042 l 406 1042 l 539 876 m 55 466 b 367 713 55 620 207 713 b 682 466 529 713 682 620 l 682 230 b 367 -19 682 78 531 -19 b 55 230 206 -19 55 78 m 511 466 b 367 571 511 536 448 571 b 226 466 288 571 226 537 l 226 230 b 367 124 226 160 289 124 b 511 230 448 124 511 160 m 299 -250 l 299 -114 l 436 -114 l 436 -250 "},"ȫ":{"ha":736,"x_min":0,"x_max":0,"o":"m 150 1042 l 150 1177 l 587 1177 l 587 1042 m 193 837 l 193 972 l 329 972 l 329 837 m 408 837 l 408 972 l 545 972 l 545 837 m 55 466 b 367 713 55 620 207 713 b 682 466 529 713 682 620 l 682 230 b 367 -19 682 78 531 -19 b 55 230 206 -19 55 78 m 511 466 b 367 571 511 536 448 571 b 226 466 288 571 226 537 l 226 230 b 367 124 226 160 289 124 b 511 230 448 124 511 160 "},"ö":{"ha":736,"x_min":0,"x_max":0,"o":"m 193 888 l 193 1024 l 329 1024 l 329 888 m 408 888 l 408 1024 l 545 1024 l 545 888 m 55 466 b 367 713 55 620 207 713 b 682 466 529 713 682 620 l 682 230 b 367 -19 682 78 531 -19 b 55 230 206 -19 55 78 m 511 466 b 367 571 511 536 448 571 b 226 466 288 571 226 537 l 226 230 b 367 124 226 160 289 124 b 511 230 448 124 511 160 "},"ọ":{"ha":736,"x_min":0,"x_max":0,"o":"m 55 466 b 367 713 55 620 207 713 b 682 466 529 713 682 620 l 682 230 b 367 -19 682 78 531 -19 b 55 230 206 -19 55 78 m 511 466 b 367 571 511 536 448 571 b 226 466 288 571 226 537 l 226 230 b 367 124 226 160 289 124 b 511 230 448 124 511 160 m 299 -250 l 299 -114 l 436 -114 l 436 -250 "},"ò":{"ha":736,"x_min":0,"x_max":0,"o":"m 388 876 l 220 1042 l 384 1042 l 517 876 m 55 466 b 367 713 55 620 207 713 b 682 466 529 713 682 620 l 682 230 b 367 -19 682 78 531 -19 b 55 230 206 -19 55 78 m 511 466 b 367 571 511 536 448 571 b 226 466 288 571 226 537 l 226 230 b 367 124 226 160 289 124 b 511 230 448 124 511 160 "},"ő":{"ha":736,"x_min":0,"x_max":0,"o":"m 97 876 l 229 1042 l 393 1042 l 227 876 m 344 876 l 476 1042 l 640 1042 l 474 876 m 55 466 b 367 713 55 620 207 713 b 682 466 529 713 682 620 l 682 230 b 367 -19 682 78 531 -19 b 55 230 206 -19 55 78 m 511 466 b 367 571 511 536 448 571 b 226 466 288 571 226 537 l 226 230 b 367 124 226 160 289 124 b 511 230 448 124 511 160 "},"ō":{"ha":736,"x_min":0,"x_max":0,"o":"m 150 889 l 150 1024 l 587 1024 l 587 889 m 55 466 b 367 713 55 620 207 713 b 682 466 529 713 682 620 l 682 230 b 367 -19 682 78 531 -19 b 55 230 206 -19 55 78 m 511 466 b 367 571 511 536 448 571 b 226 466 288 571 226 537 l 226 230 b 367 124 226 160 289 124 b 511 230 448 124 511 160 "},"ṓ":{"ha":736,"x_min":0,"x_max":0,"o":"m 219 1042 l 351 1208 l 515 1208 l 349 1042 m 149 837 l 149 972 l 586 972 l 586 837 m 55 466 b 367 713 55 620 207 713 b 682 466 529 713 682 620 l 682 230 b 367 -19 682 78 531 -19 b 55 230 206 -19 55 78 m 511 466 b 367 571 511 536 448 571 b 226 466 288 571 226 537 l 226 230 b 367 124 226 160 289 124 b 511 230 448 124 511 160 "},"ṑ":{"ha":736,"x_min":0,"x_max":0,"o":"m 387 1042 l 219 1208 l 383 1208 l 516 1042 m 149 837 l 149 972 l 586 972 l 586 837 m 55 466 b 367 713 55 620 207 713 b 682 466 529 713 682 620 l 682 230 b 367 -19 682 78 531 -19 b 55 230 206 -19 55 78 m 511 466 b 367 571 511 536 448 571 b 226 466 288 571 226 537 l 226 230 b 367 124 226 160 289 124 b 511 230 448 124 511 160 "},"ø":{"ha":754,"x_min":0,"x_max":0,"o":"m 573 661 b 691 466 643 619 691 552 l 691 230 b 376 -19 691 78 540 -19 b 275 -6 341 -19 307 -15 l 247 -69 l 135 -69 l 181 34 b 63 230 111 77 63 145 l 63 466 b 376 713 63 620 216 713 b 479 700 411 713 446 709 l 507 764 l 619 764 m 234 230 b 247 181 234 212 239 195 l 419 567 b 376 571 406 570 391 571 b 234 466 297 571 234 537 m 519 466 b 507 514 519 484 515 500 l 335 127 b 376 124 348 125 362 124 b 519 230 457 124 519 160 "},"ǿ":{"ha":754,"x_min":0,"x_max":0,"o":"m 225 876 l 357 1042 l 521 1042 l 355 876 m 573 661 b 691 466 643 619 691 552 l 691 230 b 376 -19 691 78 540 -19 b 275 -6 341 -19 307 -15 l 247 -69 l 135 -69 l 181 34 b 63 230 111 77 63 145 l 63 466 b 376 713 63 620 216 713 b 479 700 411 713 446 709 l 507 764 l 619 764 m 234 230 b 247 181 234 212 239 195 l 419 567 b 376 571 406 570 391 571 b 234 466 297 571 234 537 m 519 466 b 507 514 519 484 515 500 l 335 127 b 376 124 348 125 362 124 b 519 230 457 124 519 160 "},"õ":{"ha":736,"x_min":0,"x_max":0,"o":"m 178 900 b 298 1044 198 965 228 1044 b 343 1030 315 1044 330 1037 l 382 1005 b 412 995 392 999 402 995 b 453 1043 436 995 449 1024 l 560 1020 b 447 870 550 971 514 870 b 392 884 427 870 409 876 l 347 911 b 324 919 342 914 331 919 b 282 866 304 919 294 896 m 55 466 b 367 713 55 620 207 713 b 682 466 529 713 682 620 l 682 230 b 367 -19 682 78 531 -19 b 55 230 206 -19 55 78 m 511 466 b 367 571 511 536 448 571 b 226 466 288 571 226 537 l 226 230 b 367 124 226 160 289 124 b 511 230 448 124 511 160 "},"ṍ":{"ha":736,"x_min":0,"x_max":0,"o":"m 219 986 l 351 1152 l 515 1152 l 349 986 m 176 798 b 297 943 197 864 227 943 b 342 928 313 943 328 936 l 381 903 b 411 894 390 898 401 894 b 451 942 434 894 448 923 l 558 918 b 445 769 549 869 512 769 b 391 782 426 769 407 774 l 346 810 b 322 818 340 813 330 818 b 281 765 303 818 293 794 m 55 466 b 367 713 55 620 207 713 b 682 466 529 713 682 620 l 682 230 b 367 -19 682 78 531 -19 b 55 230 206 -19 55 78 m 511 466 b 367 571 511 536 448 571 b 226 466 288 571 226 537 l 226 230 b 367 124 226 160 289 124 b 511 230 448 124 511 160 "},"œ":{"ha":1231,"x_min":0,"x_max":0,"o":"m 65 466 b 378 714 65 620 218 714 b 631 598 484 714 583 672 b 864 714 678 668 756 714 b 1173 389 1068 714 1173 563 l 1173 287 l 729 287 l 729 266 b 871 111 731 165 776 111 b 1110 172 927 111 1015 123 l 1164 57 b 873 -19 1032 -11 908 -19 b 625 89 757 -19 674 20 b 378 -19 575 21 480 -19 b 65 230 217 -19 65 78 m 998 428 b 864 583 998 521 948 583 b 731 429 782 583 731 521 l 731 397 l 998 397 m 522 466 b 378 571 522 537 458 571 b 237 466 299 571 237 537 l 237 230 b 378 124 237 160 299 124 b 522 230 459 124 522 160 "},"p":{"ha":768,"x_min":0,"x_max":0,"o":"m 256 658 b 459 716 319 695 391 716 b 714 401 592 716 714 632 l 714 274 b 472 -22 714 81 621 -22 b 268 35 406 -22 336 -3 l 268 -250 l 97 -250 l 97 632 l 73 704 l 248 704 l 255 675 m 547 408 b 420 569 547 512 499 569 b 268 527 378 569 321 553 l 268 173 b 424 120 329 136 379 120 b 547 288 515 120 547 189 "},"þ":{"ha":710,"x_min":0,"x_max":0,"o":"m 243 695 b 402 714 298 706 362 714 b 690 425 593 714 690 582 l 690 269 b 402 -18 690 113 593 -18 b 243 0 361 -18 295 -11 l 243 -244 l 72 -244 l 72 972 l 243 972 m 518 425 b 402 571 518 519 477 571 b 243 551 361 571 292 563 l 243 144 b 402 124 292 132 361 124 b 518 269 477 124 518 176 "},"q":{"ha":776,"x_min":0,"x_max":0,"o":"m 55 401 b 310 716 55 633 178 716 b 514 658 378 716 451 695 l 515 676 l 522 704 l 696 704 l 673 632 l 673 -250 l 502 -250 l 502 35 b 298 -22 434 -3 364 -22 b 55 274 148 -22 55 81 m 502 528 b 350 569 449 553 392 569 b 223 408 271 569 223 512 l 223 288 b 345 120 223 189 254 120 b 502 173 391 120 441 136 "},"r":{"ha":579,"x_min":0,"x_max":0,"o":"m 257 649 b 435 714 326 696 393 712 b 463 715 444 715 453 715 b 564 704 504 715 548 708 l 564 559 b 436 571 478 571 455 571 b 272 526 400 571 346 562 l 272 0 l 101 0 l 101 621 l 72 714 l 238 714 "},"ŕ":{"ha":579,"x_min":0,"x_max":0,"o":"m 146 868 l 277 1034 l 442 1034 l 276 868 m 257 649 b 435 714 326 696 393 712 b 463 715 444 715 453 715 b 564 704 504 715 548 708 l 564 559 b 436 571 478 571 455 571 b 272 526 400 571 346 562 l 272 0 l 101 0 l 101 621 l 72 714 l 238 714 "},"ř":{"ha":579,"x_min":0,"x_max":0,"o":"m 254 868 l 122 1034 l 242 1034 l 293 981 l 345 1034 l 465 1034 l 333 868 m 257 649 b 435 714 326 696 393 712 b 463 715 444 715 453 715 b 564 704 504 715 548 708 l 564 559 b 436 571 478 571 455 571 b 272 526 400 571 346 562 l 272 0 l 101 0 l 101 621 l 72 714 l 238 714 "},"ŗ":{"ha":579,"x_min":0,"x_max":0,"o":"m 257 649 b 435 714 326 696 393 712 b 463 715 444 715 453 715 b 564 704 504 715 548 708 l 564 559 b 436 571 478 571 455 571 b 272 526 400 571 346 562 l 272 0 l 101 0 l 101 621 l 72 714 l 238 714 m 257 -197 b 106 -311 257 -274 183 -317 l 106 -228 b 129 -197 121 -221 129 -214 l 129 -86 l 257 -86 "},"s":{"ha":685,"x_min":0,"x_max":0,"o":"m 86 172 b 351 123 219 136 281 123 b 465 200 409 123 465 135 b 317 299 465 268 399 275 b 64 510 194 335 64 364 b 355 713 64 611 126 713 b 616 655 417 713 521 701 l 569 529 b 349 583 493 568 407 583 b 235 518 257 583 235 553 b 361 437 235 472 279 460 b 636 202 472 407 636 371 b 337 -19 636 4 457 -19 b 47 34 247 -19 171 -4 "},"ś":{"ha":685,"x_min":0,"x_max":0,"o":"m 194 876 l 326 1042 l 490 1042 l 324 876 m 86 172 b 351 123 219 136 281 123 b 465 200 409 123 465 135 b 317 299 465 268 399 275 b 64 510 194 335 64 364 b 355 713 64 611 126 713 b 616 655 417 713 521 701 l 569 529 b 349 583 493 568 407 583 b 235 518 257 583 235 553 b 361 437 235 472 279 460 b 636 202 472 407 636 371 b 337 -19 636 4 457 -19 b 47 34 247 -19 171 -4 "},"š":{"ha":685,"x_min":0,"x_max":0,"o":"m 302 876 l 171 1042 l 290 1042 l 342 989 l 394 1042 l 514 1042 l 381 876 m 86 172 b 351 123 219 136 281 123 b 465 200 409 123 465 135 b 317 299 465 268 399 275 b 64 510 194 335 64 364 b 355 713 64 611 126 713 b 616 655 417 713 521 701 l 569 529 b 349 583 493 568 407 583 b 235 518 257 583 235 553 b 361 437 235 472 279 460 b 636 202 472 407 636 371 b 337 -19 636 4 457 -19 b 47 34 247 -19 171 -4 "},"ş":{"ha":685,"x_min":0,"x_max":0,"o":"m 86 172 b 351 123 219 136 281 123 b 465 200 409 123 465 135 b 317 299 465 268 399 275 b 64 510 194 335 64 364 b 355 713 64 611 126 713 b 616 655 417 713 521 701 l 569 529 b 349 583 493 568 407 583 b 235 518 257 583 235 553 b 361 437 235 472 279 460 b 636 202 472 407 636 371 b 411 -12 636 43 517 0 b 360 -18 393 -15 376 -18 l 360 -47 l 388 -47 b 485 -149 464 -47 485 -103 b 200 -275 485 -271 408 -275 l 200 -203 b 378 -149 344 -203 378 -201 b 328 -112 378 -131 370 -112 l 281 -112 l 281 -17 b 47 34 212 -11 144 4 "},"ș":{"ha":685,"x_min":0,"x_max":0,"o":"m 86 172 b 351 123 219 136 281 123 b 465 200 409 123 465 135 b 317 299 465 268 399 275 b 64 510 194 335 64 364 b 355 713 64 611 126 713 b 616 655 417 713 521 701 l 569 529 b 349 583 493 568 407 583 b 235 518 257 583 235 553 b 361 437 235 472 279 460 b 636 202 472 407 636 371 b 337 -19 636 4 457 -19 b 47 34 247 -19 171 -4 m 411 -189 b 260 -303 411 -265 337 -308 l 260 -218 b 283 -189 275 -211 283 -206 l 283 -78 l 411 -78 "},"ṣ":{"ha":685,"x_min":0,"x_max":0,"o":"m 86 172 b 351 123 219 136 281 123 b 465 200 409 123 465 135 b 317 299 465 268 399 275 b 64 510 194 335 64 364 b 355 713 64 611 126 713 b 616 655 417 713 521 701 l 569 529 b 349 583 493 568 407 583 b 235 518 257 583 235 553 b 361 437 235 472 279 460 b 636 202 472 407 636 371 b 337 -19 636 4 457 -19 b 47 34 247 -19 171 -4 m 274 -240 l 274 -106 l 411 -106 l 411 -240 "},"ß":{"ha":803,"x_min":0,"x_max":0,"o":"m 83 718 b 408 983 83 914 239 983 b 732 718 578 983 732 914 b 635 524 732 611 688 551 b 741 353 692 495 741 436 l 741 252 b 408 0 741 80 584 0 l 335 0 l 335 145 l 408 145 b 569 260 503 145 569 174 l 569 341 b 426 454 569 421 523 456 l 426 598 b 560 718 525 597 560 616 b 408 838 560 811 497 838 b 256 718 320 838 256 811 l 256 0 l 83 0 "},"t":{"ha":574,"x_min":0,"x_max":0,"o":"m 509 695 l 509 552 l 312 552 l 312 187 b 365 116 312 135 335 119 b 379 115 369 115 374 115 b 504 148 412 115 462 131 l 545 42 b 330 -17 455 -3 386 -17 b 141 147 224 -17 141 37 l 141 551 l 27 551 l 27 695 l 141 695 l 141 859 l 312 859 l 312 695 "},"ŧ":{"ha":574,"x_min":0,"x_max":0,"o":"m 545 42 b 330 -17 455 -3 386 -17 b 141 147 224 -17 141 37 l 141 326 l 41 326 l 41 442 l 141 442 l 141 551 l 27 551 l 27 695 l 141 695 l 141 859 l 312 859 l 312 695 l 509 695 l 509 551 l 312 551 l 312 442 l 486 442 l 486 326 l 312 326 l 312 187 b 365 116 312 134 335 118 b 379 114 369 115 374 114 b 504 148 412 114 462 130 "},"ť":{"ha":574,"x_min":0,"x_max":0,"o":"m 585 928 b 420 803 585 843 504 797 l 420 895 b 443 928 436 903 443 910 l 443 1042 l 585 1042 m 509 695 l 509 552 l 312 552 l 312 187 b 365 116 312 135 335 119 b 379 115 369 115 374 115 b 504 148 412 115 462 131 l 545 42 b 330 -17 455 -3 386 -17 b 141 147 224 -17 141 37 l 141 551 l 27 551 l 27 695 l 141 695 l 141 859 l 312 859 l 312 695 "},"ţ":{"ha":574,"x_min":0,"x_max":0,"o":"m 509 695 l 509 551 l 312 551 l 312 187 b 365 116 312 134 335 118 b 379 114 369 115 374 114 b 504 148 412 114 462 130 l 545 41 b 378 -11 482 11 427 -4 b 320 -15 357 -14 338 -15 l 320 -38 l 348 -38 b 446 -140 425 -38 446 -94 b 160 -265 446 -261 368 -265 l 160 -194 b 339 -140 304 -194 339 -193 b 289 -104 339 -122 330 -104 l 242 -104 l 242 -1 b 141 147 181 21 141 71 l 141 551 l 27 551 l 27 695 l 141 695 l 141 859 l 312 859 l 312 695 "},"ṱ":{"ha":574,"x_min":0,"x_max":0,"o":"m 509 695 l 509 552 l 312 552 l 312 187 b 365 116 312 135 335 119 b 379 115 369 115 374 115 b 504 148 412 115 462 131 l 545 42 b 330 -17 455 -3 386 -17 b 141 147 224 -17 141 37 l 141 551 l 27 551 l 27 695 l 141 695 l 141 859 l 312 859 l 312 695 m 331 -240 l 279 -187 l 228 -240 l 108 -240 l 240 -73 l 319 -73 l 451 -240 "},"ț":{"ha":574,"x_min":0,"x_max":0,"o":"m 509 695 l 509 552 l 312 552 l 312 187 b 365 116 312 135 335 119 b 379 115 369 115 374 115 b 504 148 412 115 462 131 l 545 42 b 330 -17 455 -3 386 -17 b 141 147 224 -17 141 37 l 141 551 l 27 551 l 27 695 l 141 695 l 141 859 l 312 859 l 312 695 m 350 -186 b 199 -300 350 -263 276 -306 l 199 -216 b 222 -186 214 -209 222 -204 l 222 -76 l 350 -76 "},"ṭ":{"ha":574,"x_min":0,"x_max":0,"o":"m 509 695 l 509 552 l 312 552 l 312 187 b 365 116 312 135 335 119 b 379 115 369 115 374 115 b 504 148 412 115 462 131 l 545 42 b 330 -17 455 -3 386 -17 b 141 147 224 -17 141 37 l 141 551 l 27 551 l 27 695 l 141 695 l 141 859 l 312 859 l 312 695 m 213 -238 l 213 -104 l 350 -104 l 350 -238 "},"ṯ":{"ha":574,"x_min":0,"x_max":0,"o":"m 509 695 l 509 552 l 312 552 l 312 187 b 365 116 312 135 335 119 b 379 115 369 115 374 115 b 504 148 412 115 462 131 l 545 42 b 330 -17 455 -3 386 -17 b 141 147 224 -17 141 37 l 141 551 l 27 551 l 27 695 l 141 695 l 141 859 l 312 859 l 312 695 m 59 -245 l 59 -109 l 496 -109 l 496 -245 "},"u":{"ha":797,"x_min":0,"x_max":0,"o":"m 728 0 l 558 0 l 547 38 b 328 -20 478 -3 388 -20 b 70 261 158 -20 70 105 l 70 694 l 240 694 l 240 261 b 347 123 240 176 279 126 b 532 170 400 119 468 134 l 532 694 l 704 694 l 704 77 "},"ú":{"ha":797,"x_min":0,"x_max":0,"o":"m 249 876 l 381 1042 l 545 1042 l 379 876 m 728 0 l 558 0 l 547 38 b 328 -20 478 -3 388 -20 b 70 261 158 -20 70 105 l 70 694 l 240 694 l 240 261 b 347 123 240 176 279 126 b 532 170 400 119 468 134 l 532 694 l 704 694 l 704 77 "},"ǔ":{"ha":797,"x_min":0,"x_max":0,"o":"m 357 876 l 226 1042 l 345 1042 l 397 989 l 448 1042 l 569 1042 l 436 876 m 728 0 l 558 0 l 547 38 b 328 -20 478 -3 388 -20 b 70 261 158 -20 70 105 l 70 694 l 240 694 l 240 261 b 347 123 240 176 279 126 b 532 170 400 119 468 134 l 532 694 l 704 694 l 704 77 "},"û":{"ha":797,"x_min":0,"x_max":0,"o":"m 448 876 l 397 928 l 345 876 l 226 876 l 357 1042 l 436 1042 l 569 876 m 728 0 l 558 0 l 547 38 b 328 -20 478 -3 388 -20 b 70 261 158 -20 70 105 l 70 694 l 240 694 l 240 261 b 347 123 240 176 279 126 b 532 170 400 119 468 134 l 532 694 l 704 694 l 704 77 "},"ü":{"ha":797,"x_min":0,"x_max":0,"o":"m 221 888 l 221 1024 l 358 1024 l 358 888 m 437 888 l 437 1024 l 573 1024 l 573 888 m 728 0 l 558 0 l 547 38 b 328 -20 478 -3 388 -20 b 70 261 158 -20 70 105 l 70 694 l 240 694 l 240 261 b 347 123 240 176 279 126 b 532 170 400 119 468 134 l 532 694 l 704 694 l 704 77 "},"ǘ":{"ha":797,"x_min":0,"x_max":0,"o":"m 249 1042 l 381 1208 l 545 1208 l 379 1042 m 221 837 l 221 972 l 358 972 l 358 837 m 437 837 l 437 972 l 573 972 l 573 837 m 728 0 l 558 0 l 547 38 b 328 -20 478 -3 388 -20 b 70 261 158 -20 70 105 l 70 694 l 240 694 l 240 261 b 347 123 240 176 279 126 b 532 170 400 119 468 134 l 532 694 l 704 694 l 704 77 "},"ǚ":{"ha":797,"x_min":0,"x_max":0,"o":"m 357 1042 l 226 1208 l 345 1208 l 397 1155 l 448 1208 l 569 1208 l 436 1042 m 221 837 l 221 972 l 358 972 l 358 837 m 437 837 l 437 972 l 573 972 l 573 837 m 728 0 l 558 0 l 547 38 b 328 -20 478 -3 388 -20 b 70 261 158 -20 70 105 l 70 694 l 240 694 l 240 261 b 347 123 240 176 279 126 b 532 170 400 119 468 134 l 532 694 l 704 694 l 704 77 "},"ǜ":{"ha":797,"x_min":0,"x_max":0,"o":"m 417 1042 l 249 1208 l 413 1208 l 546 1042 m 221 837 l 221 972 l 358 972 l 358 837 m 437 837 l 437 972 l 573 972 l 573 837 m 728 0 l 558 0 l 547 38 b 328 -20 478 -3 388 -20 b 70 261 158 -20 70 105 l 70 694 l 240 694 l 240 261 b 347 123 240 176 279 126 b 532 170 400 119 468 134 l 532 694 l 704 694 l 704 77 "},"ǖ":{"ha":797,"x_min":0,"x_max":0,"o":"m 179 1042 l 179 1177 l 616 1177 l 616 1042 m 221 837 l 221 972 l 358 972 l 358 837 m 437 837 l 437 972 l 573 972 l 573 837 m 728 0 l 558 0 l 547 38 b 328 -20 478 -3 388 -20 b 70 261 158 -20 70 105 l 70 694 l 240 694 l 240 261 b 347 123 240 176 279 126 b 532 170 400 119 468 134 l 532 694 l 704 694 l 704 77 "},"ụ":{"ha":797,"x_min":0,"x_max":0,"o":"m 728 0 l 558 0 l 547 38 b 328 -20 478 -3 388 -20 b 70 261 158 -20 70 105 l 70 694 l 240 694 l 240 261 b 347 123 240 176 279 126 b 532 170 400 119 468 134 l 532 694 l 704 694 l 704 77 m 313 -250 l 313 -114 l 450 -114 l 450 -250 "},"ù":{"ha":797,"x_min":0,"x_max":0,"o":"m 417 876 l 249 1042 l 413 1042 l 546 876 m 728 0 l 558 0 l 547 38 b 328 -20 478 -3 388 -20 b 70 261 158 -20 70 105 l 70 694 l 240 694 l 240 261 b 347 123 240 176 279 126 b 532 170 400 119 468 134 l 532 694 l 704 694 l 704 77 "},"ű":{"ha":797,"x_min":0,"x_max":0,"o":"m 126 876 l 258 1042 l 422 1042 l 256 876 m 373 876 l 504 1042 l 669 1042 l 503 876 m 728 0 l 558 0 l 547 38 b 328 -20 478 -3 388 -20 b 70 261 158 -20 70 105 l 70 694 l 240 694 l 240 261 b 347 123 240 176 279 126 b 532 170 400 119 468 134 l 532 694 l 704 694 l 704 77 "},"ū":{"ha":797,"x_min":0,"x_max":0,"o":"m 179 889 l 179 1024 l 616 1024 l 616 889 m 728 0 l 558 0 l 547 38 b 328 -20 478 -3 388 -20 b 70 261 158 -20 70 105 l 70 694 l 240 694 l 240 261 b 347 123 240 176 279 126 b 532 170 400 119 468 134 l 532 694 l 704 694 l 704 77 "},"ų":{"ha":797,"x_min":0,"x_max":0,"o":"m 726 0 l 669 -11 b 565 -75 603 -11 565 -31 b 730 -183 565 -156 593 -183 l 730 -267 b 477 -96 520 -267 477 -221 b 558 0 477 -42 495 -11 l 547 38 b 328 -20 478 -3 388 -20 b 70 261 158 -20 70 105 l 70 694 l 240 694 l 240 261 b 347 123 240 176 279 126 b 532 170 400 119 468 134 l 532 694 l 704 694 l 704 77 "},"ů":{"ha":797,"x_min":0,"x_max":0,"o":"m 397 1052 b 555 893 486 1052 555 981 b 397 736 555 805 486 736 b 239 893 308 736 239 805 b 397 1052 239 981 308 1052 m 397 950 b 341 893 367 950 341 925 b 397 838 341 863 367 838 b 453 893 429 838 453 863 b 397 950 453 925 429 950 m 728 0 l 558 0 l 547 38 b 328 -20 478 -3 388 -20 b 70 261 158 -20 70 105 l 70 694 l 240 694 l 240 261 b 347 123 240 176 279 126 b 532 170 400 119 468 134 l 532 694 l 704 694 l 704 77 "},"ũ":{"ha":797,"x_min":0,"x_max":0,"o":"m 206 900 b 327 1044 227 965 257 1044 b 372 1030 344 1044 358 1037 l 411 1005 b 441 995 420 999 431 995 b 481 1043 464 995 478 1024 l 588 1020 b 475 870 579 971 542 870 b 421 884 456 870 438 876 l 376 911 b 352 919 371 914 360 919 b 311 866 333 919 323 896 m 728 0 l 558 0 l 547 38 b 328 -20 478 -3 388 -20 b 70 261 158 -20 70 105 l 70 694 l 240 694 l 240 261 b 347 123 240 176 279 126 b 532 170 400 119 468 134 l 532 694 l 704 694 l 704 77 "},"v":{"ha":778,"x_min":0,"x_max":0,"o":"m 305 0 l 23 694 l 206 694 l 389 195 l 573 694 l 756 694 l 473 0 "},"w":{"ha":1081,"x_min":0,"x_max":0,"o":"m 672 0 l 541 417 l 409 0 l 230 0 l 23 694 l 201 694 l 324 229 l 460 694 l 622 694 l 758 229 l 880 694 l 1059 694 l 852 0 "},"ẃ":{"ha":1081,"x_min":0,"x_max":0,"o":"m 391 876 l 523 1042 l 687 1042 l 521 876 m 672 0 l 541 417 l 409 0 l 230 0 l 23 694 l 201 694 l 324 229 l 460 694 l 622 694 l 758 229 l 880 694 l 1059 694 l 852 0 "},"ŵ":{"ha":1081,"x_min":0,"x_max":0,"o":"m 590 876 l 538 928 l 487 876 l 367 876 l 499 1042 l 578 1042 l 710 876 m 672 0 l 541 417 l 409 0 l 230 0 l 23 694 l 201 694 l 324 229 l 460 694 l 622 694 l 758 229 l 880 694 l 1059 694 l 852 0 "},"ẅ":{"ha":1081,"x_min":0,"x_max":0,"o":"m 363 888 l 363 1024 l 499 1024 l 499 888 m 578 888 l 578 1024 l 715 1024 l 715 888 m 672 0 l 541 417 l 409 0 l 230 0 l 23 694 l 201 694 l 324 229 l 460 694 l 622 694 l 758 229 l 880 694 l 1059 694 l 852 0 "},"ẁ":{"ha":1081,"x_min":0,"x_max":0,"o":"m 558 876 l 390 1042 l 554 1042 l 687 876 m 672 0 l 541 417 l 409 0 l 230 0 l 23 694 l 201 694 l 324 229 l 460 694 l 622 694 l 758 229 l 880 694 l 1059 694 l 852 0 "},"x":{"ha":828,"x_min":0,"x_max":0,"o":"m 804 0 l 606 0 l 414 233 l 222 0 l 23 0 l 315 346 l 23 694 l 222 694 l 414 461 l 605 694 l 805 694 l 512 348 "},"y":{"ha":819,"x_min":0,"x_max":0,"o":"m 448 -99 b 244 -239 399 -210 320 -239 b 93 -207 215 -239 189 -237 l 131 -96 b 234 -117 170 -107 215 -119 b 302 -39 261 -115 278 -97 l 330 29 l 23 694 l 208 694 l 411 215 l 611 694 l 797 694 "},"ý":{"ha":819,"x_min":0,"x_max":0,"o":"m 258 876 l 390 1042 l 554 1042 l 388 876 m 448 -99 b 244 -239 399 -210 320 -239 b 93 -207 215 -239 189 -237 l 131 -96 b 234 -117 170 -107 215 -119 b 302 -39 261 -115 278 -97 l 330 29 l 23 694 l 208 694 l 411 215 l 611 694 l 797 694 "},"ŷ":{"ha":819,"x_min":0,"x_max":0,"o":"m 457 876 l 406 928 l 354 876 l 234 876 l 366 1042 l 445 1042 l 578 876 m 448 -99 b 244 -239 399 -210 320 -239 b 93 -207 215 -239 189 -237 l 131 -96 b 234 -117 170 -107 215 -119 b 302 -39 261 -115 278 -97 l 330 29 l 23 694 l 208 694 l 411 215 l 611 694 l 797 694 "},"ÿ":{"ha":819,"x_min":0,"x_max":0,"o":"m 230 888 l 230 1024 l 367 1024 l 367 888 m 446 888 l 446 1024 l 582 1024 l 582 888 m 448 -99 b 244 -239 399 -210 320 -239 b 93 -207 215 -239 189 -237 l 131 -96 b 234 -117 170 -107 215 -119 b 302 -39 261 -115 278 -97 l 330 29 l 23 694 l 208 694 l 411 215 l 611 694 l 797 694 "},"ỳ":{"ha":819,"x_min":0,"x_max":0,"o":"m 426 876 l 258 1042 l 422 1042 l 555 876 m 448 -99 b 244 -239 399 -210 320 -239 b 93 -207 215 -239 189 -237 l 131 -96 b 234 -117 170 -107 215 -119 b 302 -39 261 -115 278 -97 l 330 29 l 23 694 l 208 694 l 411 215 l 611 694 l 797 694 "},"z":{"ha":668,"x_min":0,"x_max":0,"o":"m 278 143 l 621 143 l 621 0 l 48 0 l 48 99 l 379 551 l 74 551 l 74 694 l 610 694 l 610 596 "},"ź":{"ha":668,"x_min":0,"x_max":0,"o":"m 186 876 l 318 1042 l 482 1042 l 316 876 m 278 143 l 621 143 l 621 0 l 48 0 l 48 99 l 379 551 l 74 551 l 74 694 l 610 694 l 610 596 "},"ž":{"ha":668,"x_min":0,"x_max":0,"o":"m 294 876 l 162 1042 l 282 1042 l 334 989 l 385 1042 l 506 1042 l 373 876 m 278 143 l 621 143 l 621 0 l 48 0 l 48 99 l 379 551 l 74 551 l 74 694 l 610 694 l 610 596 "},"ż":{"ha":668,"x_min":0,"x_max":0,"o":"m 266 888 l 266 1024 l 403 1024 l 403 888 m 278 143 l 621 143 l 621 0 l 48 0 l 48 99 l 379 551 l 74 551 l 74 694 l 610 694 l 610 596 "},"ẓ":{"ha":668,"x_min":0,"x_max":0,"o":"m 278 143 l 621 143 l 621 0 l 48 0 l 48 99 l 379 551 l 74 551 l 74 694 l 610 694 l 610 596 m 259 -250 l 259 -114 l 396 -114 l 396 -250 "},"ﬁ":{"ha":817,"x_min":0,"x_max":0,"o":"m 123 726 b 340 989 128 906 194 989 b 494 968 378 989 443 981 l 494 840 b 398 852 467 845 429 852 b 375 850 390 852 382 851 b 293 724 323 848 294 823 l 293 694 l 744 694 l 744 0 l 573 0 l 573 551 l 293 551 l 293 0 l 122 0 l 122 551 l 43 551 l 43 695 l 123 695 m 573 784 l 573 952 l 744 952 l 744 784 "},"ﬂ":{"ha":829,"x_min":0,"x_max":0,"o":"m 123 726 b 340 989 128 906 194 989 b 450 978 369 989 411 984 l 753 978 l 753 0 l 582 0 l 582 840 l 494 840 b 398 852 467 845 429 852 b 375 850 390 852 382 851 b 293 724 323 848 294 823 l 293 695 l 471 695 l 471 551 l 293 551 l 293 0 l 122 0 l 122 551 l 43 551 l 43 695 l 123 695 "},"ª":{"ha":553,"x_min":0,"x_max":0,"o":"m 80 832 b 275 880 148 862 213 880 b 468 707 380 880 468 834 l 468 463 l 486 409 l 363 409 l 355 434 b 215 396 321 408 264 396 b 61 549 85 396 61 489 b 244 703 61 672 143 698 b 332 699 270 703 301 702 l 332 729 b 265 794 332 775 307 794 b 110 752 236 794 169 783 m 341 608 b 272 618 320 615 291 618 b 189 551 227 618 189 616 b 250 498 189 523 204 498 b 341 519 273 498 313 505 "},"º":{"ha":560,"x_min":0,"x_max":0,"o":"m 67 712 b 279 879 67 812 171 879 b 493 712 389 879 493 812 l 493 563 b 279 395 493 462 390 395 b 67 563 170 395 67 462 m 356 712 b 279 769 356 748 327 769 b 203 712 235 769 203 748 l 203 563 b 279 505 203 526 235 505 b 356 563 325 505 356 525 "},"Δ":{"ha":1157,"x_min":0,"x_max":0,"o":""},"Ω":{"ha":1157,"x_min":0,"x_max":0,"o":""},"μ":{"ha":1157,"x_min":0,"x_max":0,"o":""},"π":{"ha":167,"x_min":0,"x_max":0,"o":""},"⁄":{"ha":675,"x_min":0,"x_max":0,"o":"m 33 -22 l 487 995 l 643 995 l 189 -22 "},"½":{"ha":1192,"x_min":0,"x_max":0,"o":"m 230 -22 l 684 995 l 841 995 l 386 -22 m 184 383 l 184 853 l 78 835 l 58 943 l 239 972 l 321 972 l 321 383 m 729 552 b 938 601 775 574 857 601 b 1138 415 1075 601 1138 525 b 1068 283 1138 359 1118 320 b 905 190 1023 249 946 231 b 873 109 887 169 879 145 l 1139 109 l 1139 0 l 731 0 b 774 233 731 141 735 173 b 973 363 818 300 939 341 b 1001 415 993 375 1001 394 b 935 488 1001 464 981 487 b 760 442 902 491 820 466 "},"¼":{"ha":1139,"x_min":0,"x_max":0,"o":"m 229 -24 l 683 995 l 839 995 l 385 -24 m 183 383 l 183 853 l 75 835 l 57 943 l 237 972 l 320 972 l 320 383 m 770 209 l 899 209 l 899 246 l 917 369 l 1025 369 l 1025 209 l 1086 209 l 1086 99 l 1025 99 l 1025 0 l 899 0 l 899 99 l 614 99 l 614 169 l 770 605 l 897 565 "},"¾":{"ha":1253,"x_min":0,"x_max":0,"o":"m 340 -22 l 794 995 l 950 995 l 496 -22 m 57 934 b 260 975 121 955 199 975 b 473 797 409 975 473 912 b 432 681 473 748 460 710 b 483 546 470 646 483 597 b 262 362 483 392 382 362 b 52 400 199 362 141 371 l 78 495 b 262 470 171 473 215 470 b 347 546 318 470 347 489 b 285 624 347 590 329 624 l 129 624 l 129 733 l 281 733 b 337 797 318 733 337 753 b 260 870 337 843 320 870 b 74 839 220 870 157 862 m 881 209 l 1010 209 l 1010 247 l 1029 369 l 1136 369 l 1136 209 l 1197 209 l 1197 99 l 1136 99 l 1136 0 l 1010 0 l 1010 99 l 725 99 l 725 169 l 881 606 l 1009 565 "},"⅛":{"ha":1208,"x_min":0,"x_max":0,"o":"m 225 -24 l 679 995 l 836 995 l 382 -24 m 179 383 l 179 853 l 72 835 l 54 943 l 233 972 l 316 972 l 316 383 m 707 214 b 761 322 707 262 728 302 b 712 437 731 342 712 380 b 928 619 712 572 817 619 b 1144 437 1040 619 1144 572 b 1095 322 1144 380 1126 342 b 1150 214 1128 302 1150 262 l 1150 169 b 932 -6 1150 50 1046 -6 b 707 169 817 -6 707 50 m 968 378 b 1015 437 995 378 1015 391 b 928 506 1015 491 983 506 b 842 437 875 506 842 491 b 891 378 842 391 863 378 m 885 265 b 837 214 857 265 837 246 l 837 169 b 928 107 837 124 872 107 b 1020 169 986 107 1020 124 l 1020 214 b 973 265 1020 246 1000 265 "},"⅜":{"ha":1332,"x_min":0,"x_max":0,"o":"m 349 -22 l 802 995 l 958 995 l 504 -22 m 66 935 b 269 976 129 956 207 976 b 482 797 418 976 482 913 b 440 681 482 749 469 711 b 492 546 478 646 492 597 b 270 362 492 392 391 362 b 60 401 208 362 149 372 l 87 495 b 270 471 180 473 224 471 b 355 546 327 471 355 489 b 293 624 355 590 338 624 l 138 624 l 138 734 l 289 734 b 346 797 327 734 346 753 b 269 870 346 844 328 870 b 83 840 229 870 165 862 m 830 215 b 885 322 830 262 851 302 b 836 437 854 343 836 381 b 1052 619 836 572 940 619 b 1268 437 1163 619 1268 572 b 1219 322 1268 380 1249 343 b 1273 215 1252 302 1273 262 l 1273 169 b 1055 -6 1273 50 1169 -6 b 830 169 941 -6 830 50 m 1091 379 b 1139 437 1118 379 1139 392 b 1052 506 1139 492 1106 506 b 966 437 998 506 966 492 b 1014 379 966 392 986 379 m 1008 265 b 960 215 981 265 960 246 l 960 169 b 1052 107 960 124 995 107 b 1144 169 1109 107 1144 124 l 1144 215 b 1097 265 1144 246 1123 265 "},"⅝":{"ha":1311,"x_min":0,"x_max":0,"o":"m 329 -22 l 782 995 l 938 995 l 484 -22 m 214 864 l 209 760 b 259 762 229 761 245 762 b 455 562 378 762 455 711 b 239 363 455 378 345 363 b 54 398 207 363 159 363 l 85 503 b 239 470 181 470 212 470 b 330 562 297 470 330 483 b 250 655 330 634 300 655 b 81 651 187 655 148 654 l 92 972 l 427 972 l 427 864 m 810 214 b 864 322 810 262 831 302 b 815 437 833 342 815 380 b 1031 619 815 572 919 619 b 1247 437 1143 619 1247 572 b 1198 322 1247 380 1229 342 b 1253 214 1231 302 1253 262 l 1253 169 b 1034 -6 1253 50 1149 -6 b 810 169 920 -6 810 50 m 1070 378 b 1118 437 1098 378 1118 391 b 1031 506 1118 491 1086 506 b 945 437 978 506 945 491 b 993 378 945 391 966 378 m 988 265 b 940 214 960 265 940 246 l 940 169 b 1031 107 940 124 975 107 b 1123 169 1089 107 1123 124 l 1123 214 b 1076 265 1123 246 1103 265 "},"⅞":{"ha":1199,"x_min":0,"x_max":0,"o":"m 217 -22 l 671 995 l 827 995 l 373 -22 m 465 891 b 271 500 371 817 271 683 l 271 374 l 146 374 l 146 500 b 278 864 146 655 206 777 l 54 864 l 54 972 l 465 972 m 698 215 b 753 322 698 262 719 302 b 704 437 722 343 704 380 b 920 619 704 572 808 619 b 1136 437 1031 619 1136 572 b 1087 322 1136 380 1117 343 b 1141 215 1120 302 1141 262 l 1141 169 b 923 -6 1141 50 1037 -6 b 698 169 808 -6 698 50 m 959 379 b 1007 437 986 379 1007 392 b 920 506 1007 492 974 506 b 834 437 866 506 834 492 b 882 379 834 392 854 379 m 876 265 b 828 215 849 265 828 246 l 828 169 b 920 107 828 124 863 107 b 1012 169 977 107 1012 124 l 1012 215 b 965 265 1012 246 991 265 "},"¹":{"ha":364,"x_min":0,"x_max":0,"o":"m 156 386 l 156 856 l 49 839 l 30 947 l 210 976 l 293 976 l 293 386 "},"²":{"ha":524,"x_min":0,"x_max":0,"o":"m 63 926 b 271 976 109 948 190 976 b 472 790 408 976 472 899 b 402 657 472 733 451 694 b 239 564 357 624 280 605 b 207 484 221 543 212 520 l 472 484 l 472 374 l 65 374 b 108 607 65 515 68 547 b 307 737 152 674 272 716 b 335 790 326 749 335 768 b 269 862 335 839 314 861 b 94 816 236 865 153 841 "},"³":{"ha":544,"x_min":0,"x_max":0,"o":"m 53 934 b 256 975 116 955 194 975 b 468 797 404 975 468 912 b 427 681 468 748 455 710 b 478 546 465 646 478 597 b 257 362 478 392 377 362 b 47 400 195 362 136 371 l 73 495 b 257 470 166 473 210 470 b 342 546 313 470 342 489 b 280 624 342 590 324 624 l 124 624 l 124 733 l 276 733 b 333 797 314 733 333 753 b 256 870 333 843 315 870 b 69 839 215 870 152 862 "},"*":{"ha":719,"x_min":0,"x_max":0,"o":"m 634 849 l 673 707 l 491 648 l 611 483 l 475 399 l 360 554 l 247 396 l 111 484 l 230 648 l 47 708 l 88 850 l 275 788 l 275 995 l 445 995 l 445 789 "},"\\":{"ha":683,"x_min":0,"x_max":0,"o":"m 467 0 l 37 972 l 217 972 l 647 0 "},"•":{"ha":508,"x_min":0,"x_max":0,"o":"m 255 598 b 445 421 358 598 445 512 b 255 241 445 327 358 241 b 63 421 148 241 63 327 b 255 598 63 512 148 598 "},":":{"ha":274,"x_min":0,"x_max":0,"o":"m 52 509 l 52 694 l 225 694 l 225 509 m 52 0 l 52 185 l 225 185 l 225 0 "},",":{"ha":318,"x_min":0,"x_max":0,"o":"m 256 -1 b 55 -151 256 -104 157 -160 l 55 -40 b 82 -1 73 -31 82 -24 l 82 132 l 256 132 "},"…":{"ha":826,"x_min":0,"x_max":0,"o":"m 72 0 l 72 185 l 247 185 l 247 0 m 326 0 l 326 185 l 501 185 l 501 0 m 580 0 l 580 185 l 755 185 l 755 0 "},"!":{"ha":297,"x_min":0,"x_max":0,"o":"m 62 265 l 62 972 l 235 972 l 235 265 m 60 0 l 60 175 l 238 175 l 238 0 "},"¡":{"ha":297,"x_min":0,"x_max":0,"o":"m 60 547 l 60 722 l 238 722 l 238 547 m 62 -250 l 62 457 l 235 457 l 235 -250 "},"#":{"ha":822,"x_min":0,"x_max":0,"o":"m 769 693 l 769 557 l 651 557 l 619 408 l 769 408 l 769 273 l 590 273 l 533 0 l 369 0 l 426 273 l 304 273 l 247 0 l 82 0 l 140 273 l 57 273 l 57 408 l 169 408 l 201 557 l 57 557 l 57 693 l 230 693 l 287 963 l 452 963 l 394 693 l 516 693 l 574 963 l 738 963 l 680 693 m 333 408 l 455 408 l 487 557 l 365 557 "},".":{"ha":315,"x_min":0,"x_max":0,"o":"m 72 -6 l 72 179 l 247 179 l 247 -6 "},"·":{"ha":315,"x_min":0,"x_max":0,"o":"m 72 329 l 72 514 l 247 514 l 247 329 "},"?":{"ha":667,"x_min":0,"x_max":0,"o":"m 35 965 b 310 996 109 980 213 996 b 626 760 477 996 622 929 l 626 737 b 485 527 626 645 570 572 l 395 480 b 332 372 355 460 332 432 l 332 265 l 159 265 l 159 372 b 313 610 159 472 194 549 l 402 655 b 453 737 431 670 453 699 l 453 759 b 310 850 453 828 395 850 b 47 819 241 850 71 823 m 157 0 l 157 176 l 335 176 l 335 0 "},"¿":{"ha":667,"x_min":0,"x_max":0,"o":"m 333 584 l 333 760 l 510 760 l 510 584 m 508 388 b 355 150 508 288 474 211 l 266 105 b 215 23 237 91 215 61 l 215 1 b 357 -90 215 -68 273 -90 b 621 -60 427 -90 597 -64 l 633 -204 b 357 -235 558 -221 454 -235 b 42 0 190 -235 45 -169 l 42 23 b 182 233 42 115 97 188 l 273 280 b 335 388 312 300 335 328 l 335 495 l 508 495 "},"\"":{"ha":558,"x_min":0,"x_max":0,"o":"m 72 796 l 72 1042 l 247 1042 l 247 796 m 313 796 l 313 1042 l 488 1042 l 488 796 "},"'":{"ha":315,"x_min":0,"x_max":0,"o":"m 72 796 l 72 1042 l 247 1042 l 247 796 "},";":{"ha":292,"x_min":0,"x_max":0,"o":"m 62 509 l 62 694 l 237 694 l 237 509 m 238 -1 b 37 -151 238 -104 138 -160 l 37 -40 b 63 -1 55 -31 63 -24 l 63 132 l 238 132 "},"/":{"ha":689,"x_min":0,"x_max":0,"o":"m 37 0 l 473 972 l 653 972 l 218 0 "},"_":{"ha":824,"x_min":0,"x_max":0,"o":"m 72 -250 l 72 -104 l 751 -104 l 751 -250 "},"{":{"ha":576,"x_min":0,"x_max":0,"o":"m 162 745 b 384 1030 162 971 228 1030 b 538 1005 436 1030 492 1018 l 538 853 b 424 876 499 866 455 876 b 397 871 413 876 403 874 b 335 750 351 866 335 836 l 335 618 b 266 417 335 519 310 448 b 335 217 309 385 335 314 l 335 85 b 397 -37 335 -1 351 -32 b 424 -42 403 -41 412 -42 b 538 -19 454 -42 499 -33 l 538 -171 b 384 -196 492 -183 436 -196 b 162 89 228 -196 162 -137 l 162 217 b 44 341 162 324 137 338 l 44 491 b 162 618 139 494 162 508 "},"}":{"ha":576,"x_min":0,"x_max":0,"o":"m 44 1005 b 199 1030 90 1018 146 1030 b 421 745 354 1030 421 971 l 421 618 b 538 490 421 508 444 494 l 538 341 b 421 217 445 338 421 324 l 421 89 b 199 -196 421 -138 354 -196 b 44 -171 146 -196 90 -183 l 44 -19 b 158 -42 83 -33 128 -42 b 186 -37 170 -42 179 -41 b 248 85 232 -32 248 -1 l 248 217 b 316 416 248 314 273 385 b 248 618 273 448 248 519 l 248 750 b 186 871 248 836 232 866 b 158 876 179 874 170 876 b 44 853 128 876 83 866 "},"[":{"ha":439,"x_min":0,"x_max":0,"o":"m 245 897 l 245 -64 l 414 -64 l 414 -208 l 72 -208 l 72 1042 l 414 1042 l 414 897 "},"]":{"ha":439,"x_min":0,"x_max":0,"o":"m 26 -208 l 26 -64 l 194 -64 l 194 897 l 26 897 l 26 1042 l 367 1042 l 367 -208 "},"(":{"ha":415,"x_min":0,"x_max":0,"o":"m 365 963 b 238 395 261 768 238 572 b 365 -147 238 223 263 42 l 206 -222 b 53 395 86 -4 53 201 b 205 1038 53 595 79 814 "},")":{"ha":415,"x_min":0,"x_max":0,"o":"m 211 1039 b 363 395 337 814 363 595 b 210 -222 363 201 330 -4 l 51 -147 b 178 395 153 42 178 224 b 51 963 178 573 155 769 "},"—":{"ha":910,"x_min":0,"x_max":0,"o":"m 72 299 l 72 444 l 838 444 l 838 299 "},"–":{"ha":719,"x_min":0,"x_max":0,"o":"m 72 299 l 72 444 l 647 444 l 647 299 "},"-":{"ha":578,"x_min":0,"x_max":0,"o":"m 72 349 l 72 494 l 507 494 l 507 349 "},"«":{"ha":844,"x_min":0,"x_max":0,"o":"m 574 327 l 777 140 l 777 -71 l 390 292 l 390 361 l 777 724 l 777 513 m 234 326 l 437 140 l 437 -71 l 50 292 l 50 361 l 437 724 l 437 512 "},"»":{"ha":846,"x_min":0,"x_max":0,"o":"m 456 292 l 69 -71 l 69 140 l 272 327 l 69 513 l 69 724 l 456 361 m 796 292 l 409 -71 l 409 140 l 611 326 l 409 512 l 409 724 l 796 361 "},"‹":{"ha":488,"x_min":0,"x_max":0,"o":"m 219 326 l 423 140 l 423 -71 l 36 292 l 36 361 l 423 724 l 423 513 "},"›":{"ha":490,"x_min":0,"x_max":0,"o":"m 454 292 l 66 -71 l 66 140 l 268 326 l 66 512 l 66 724 l 454 361 "},"„":{"ha":579,"x_min":0,"x_max":0,"o":"m 267 -1 b 66 -151 267 -104 168 -160 l 66 -40 b 93 -1 85 -31 93 -24 l 93 132 l 267 132 m 510 -1 b 310 -151 510 -104 411 -160 l 310 -40 b 336 -1 328 -31 336 -24 l 336 132 l 510 132 "},"“":{"ha":578,"x_min":0,"x_max":0,"o":"m 271 930 b 244 892 253 921 244 914 l 244 759 l 70 759 l 70 892 b 251 1043 70 988 157 1043 b 271 1042 257 1043 264 1043 m 514 930 b 488 892 496 921 488 914 l 488 759 l 313 759 l 313 892 b 494 1043 313 988 400 1043 b 514 1042 501 1043 507 1043 "},"”":{"ha":579,"x_min":0,"x_max":0,"o":"m 267 908 b 87 758 267 813 181 758 b 66 759 80 758 73 758 l 66 870 b 93 908 85 880 93 887 l 93 1042 l 267 1042 m 510 908 b 330 758 510 813 424 758 b 310 759 323 758 316 758 l 310 870 b 336 908 328 880 336 887 l 336 1042 l 510 1042 "},"‘":{"ha":318,"x_min":0,"x_max":0,"o":"m 267 930 b 240 892 248 921 240 913 l 240 758 l 66 758 l 66 892 b 267 1042 66 995 165 1050 "},"’":{"ha":318,"x_min":0,"x_max":0,"o":"m 256 908 b 55 758 256 805 157 750 l 55 870 b 82 908 73 879 82 887 l 82 1042 l 256 1042 "},"‚":{"ha":318,"x_min":0,"x_max":0,"o":"m 256 -1 b 55 -151 256 -104 157 -160 l 55 -40 b 82 -1 73 -31 82 -24 l 82 132 l 256 132 "}," ":{"ha":417,"x_min":0,"x_max":0,"o":""},"ƒ":{"ha":532,"x_min":0,"x_max":0,"o":"m 131 726 b 348 989 131 906 202 989 b 502 968 385 989 450 981 l 502 840 b 406 852 475 845 437 852 b 382 850 397 852 390 851 b 301 724 330 848 301 823 l 301 586 l 479 586 l 479 442 l 301 442 l 301 -83 b 81 -263 301 -194 214 -263 b 55 -262 73 -263 64 -263 l 55 -144 b 130 -82 109 -149 130 -118 l 130 442 l 51 442 l 51 586 l 131 586 "},"¢":{"ha":696,"x_min":0,"x_max":0,"o":"m 433 709 b 468 705 444 708 457 707 b 646 657 503 698 580 688 l 596 516 b 387 572 475 572 426 572 b 232 349 246 572 232 470 b 387 123 232 226 246 123 b 596 178 423 123 476 123 l 648 37 b 462 -11 577 5 498 -4 b 433 -14 453 -12 441 -15 l 433 -99 l 264 -99 l 264 -6 b 59 349 76 40 59 189 b 264 698 59 504 81 651 l 264 793 l 433 793 "},"$":{"ha":788,"x_min":0,"x_max":0,"o":"m 472 986 b 710 902 544 976 638 953 l 626 768 b 412 841 534 825 466 841 b 252 720 282 841 252 788 b 422 579 252 637 333 608 b 736 269 577 526 736 472 b 472 -17 736 41 600 -6 l 472 -96 l 302 -96 l 302 -14 b 50 45 223 -6 149 12 l 95 192 b 388 131 239 146 307 131 b 555 269 470 131 555 134 b 367 435 555 371 462 402 b 71 720 229 481 71 543 b 302 980 71 836 120 948 l 302 1068 l 472 1068 "},"€":{"ha":760,"x_min":0,"x_max":0,"o":"m 146 669 b 467 972 162 866 285 972 b 713 860 579 972 665 925 l 630 756 b 467 834 577 812 521 834 b 305 667 389 834 314 778 l 303 641 l 661 641 l 661 533 l 301 533 l 301 431 l 661 431 l 661 323 l 303 323 l 305 286 b 467 116 314 175 388 116 b 630 195 521 116 577 138 l 713 91 b 467 -21 665 25 579 -21 b 145 286 284 -21 161 88 l 145 323 l 44 323 l 44 431 l 140 431 l 140 533 l 44 533 l 44 641 l 146 641 "},"£":{"ha":790,"x_min":0,"x_max":0,"o":"m 124 641 b 122 686 123 655 122 670 b 135 778 122 714 125 745 b 424 971 160 884 266 971 b 693 941 526 971 646 950 l 667 786 b 424 818 657 788 495 818 b 299 704 354 818 299 772 b 303 634 299 674 300 659 l 313 582 l 584 582 l 584 428 l 345 428 l 359 365 b 374 245 371 306 374 285 b 339 153 374 200 355 172 l 758 153 l 758 0 l 99 0 l 99 121 b 193 245 132 142 193 180 b 177 351 193 280 188 304 l 160 428 l 58 428 l 58 582 l 134 582 "},"¥":{"ha":972,"x_min":0,"x_max":0,"o":"m 797 619 l 797 474 l 639 474 l 582 379 l 797 379 l 797 234 l 577 234 l 577 0 l 396 0 l 396 234 l 171 234 l 171 378 l 391 378 l 334 474 l 171 474 l 171 619 l 246 619 l 33 972 l 237 972 l 487 558 l 736 972 l 941 972 l 726 619 "},"≈":{"ha":822,"x_min":0,"x_max":0,"o":""},"~":{"ha":799,"x_min":0,"x_max":0,"o":"m 66 342 b 282 566 100 429 145 566 b 405 530 320 566 365 555 l 485 478 b 545 454 510 462 524 454 b 626 556 582 454 602 504 l 735 515 b 539 295 720 431 660 295 b 429 332 507 295 467 304 l 343 392 b 290 408 328 402 311 408 b 174 294 251 408 217 374 "},"÷":{"ha":699,"x_min":0,"x_max":0,"o":"m 262 618 l 262 803 l 438 803 l 438 618 m 36 383 l 36 528 l 662 528 l 662 383 m 262 106 l 262 292 l 438 292 l 438 106 "},"=":{"ha":733,"x_min":0,"x_max":0,"o":"m 54 549 l 54 694 l 680 694 l 680 549 m 54 292 l 54 436 l 680 436 l 680 292 "},">":{"ha":631,"x_min":0,"x_max":0,"o":"m 594 386 l 66 53 l 66 235 l 379 428 l 66 622 l 66 803 l 594 470 "},"≥":{"ha":611,"x_min":0,"x_max":0,"o":"m 575 533 l 46 201 l 46 382 l 360 576 l 46 769 l 46 950 l 575 617 m 47 1 l 47 145 l 575 145 l 575 1 "},"∞":{"ha":1242,"x_min":0,"x_max":0,"o":""},"∫":{"ha":1242,"x_min":0,"x_max":0,"o":""},"<":{"ha":629,"x_min":0,"x_max":0,"o":"m 251 427 l 565 233 l 565 52 l 36 385 l 36 469 l 565 802 l 565 622 "},"≤":{"ha":610,"x_min":0,"x_max":0,"o":"m 251 576 l 565 382 l 565 201 l 36 534 l 36 617 l 565 951 l 565 769 m 36 1 l 36 145 l 565 145 l 565 1 "},"¬":{"ha":1242,"x_min":0,"x_max":0,"o":""},"−":{"ha":769,"x_min":0,"x_max":0,"o":"m 72 349 l 72 494 l 698 494 l 698 349 "},"×":{"ha":681,"x_min":0,"x_max":0,"o":"m 451 421 l 613 258 l 502 148 l 341 309 l 180 148 l 69 260 l 230 421 l 69 583 l 180 693 l 341 532 l 502 693 l 614 582 "},"≠":{"ha":725,"x_min":0,"x_max":0,"o":"m 671 678 l 671 540 l 473 540 l 428 437 l 671 437 l 671 300 l 367 300 l 233 0 l 58 0 l 191 300 l 51 300 l 51 437 l 252 437 l 298 540 l 51 540 l 51 678 l 359 678 l 486 965 l 662 965 l 535 678 "},"∂":{"ha":1242,"x_min":0,"x_max":0,"o":""},"%":{"ha":1165,"x_min":0,"x_max":0,"o":"m 203 0 l 807 972 l 961 972 l 357 0 m 63 765 b 252 949 63 882 155 949 b 442 765 350 949 442 882 l 442 597 b 252 411 442 482 352 411 b 63 597 153 411 63 482 m 316 765 b 252 826 316 804 288 826 b 189 765 218 826 189 804 l 189 597 b 252 535 189 558 217 535 b 316 597 288 535 316 558 m 722 377 b 912 561 722 494 815 561 b 1102 377 1010 561 1102 494 l 1102 209 b 912 23 1102 94 1012 23 b 722 209 813 23 722 94 m 975 377 b 912 438 975 415 947 438 b 849 377 878 438 849 415 l 849 209 b 912 146 849 170 877 146 b 975 209 948 146 975 170 "},"‰":{"ha":1606,"x_min":0,"x_max":0,"o":"m 205 0 l 810 972 l 964 972 l 359 0 m 65 765 b 255 949 65 882 158 949 b 445 765 352 949 445 882 l 445 597 b 255 411 445 482 355 411 b 65 597 155 411 65 482 m 318 765 b 255 826 318 804 290 826 b 192 765 221 826 192 804 l 192 597 b 255 535 192 558 220 535 b 318 597 291 535 318 558 m 726 377 b 915 561 726 494 818 561 b 1105 377 1013 561 1105 494 l 1105 210 b 915 24 1105 94 1015 24 b 726 210 816 24 726 94 m 1171 377 b 1361 561 1171 494 1264 561 b 1551 377 1458 561 1551 494 l 1551 210 b 1361 24 1551 94 1461 24 b 1171 210 1261 24 1171 94 m 978 377 b 915 439 978 416 951 439 b 852 377 881 439 852 416 l 852 210 b 915 147 852 171 880 147 b 978 210 951 147 978 171 m 1424 377 b 1361 439 1424 416 1396 439 b 1298 377 1327 439 1298 416 l 1298 210 b 1361 147 1298 171 1326 147 b 1424 210 1397 147 1424 171 "},"+":{"ha":699,"x_min":0,"x_max":0,"o":"m 663 494 l 663 349 l 435 349 l 435 120 l 265 120 l 265 349 l 37 349 l 37 494 l 265 494 l 265 721 l 435 721 l 435 494 "},"±":{"ha":1242,"x_min":0,"x_max":0,"o":""},"∏":{"ha":1242,"x_min":0,"x_max":0,"o":""},"√":{"ha":1242,"x_min":0,"x_max":0,"o":""},"∑":{"ha":1242,"x_min":0,"x_max":0,"o":""},"◊":{"ha":1242,"x_min":0,"x_max":0,"o":""},"&":{"ha":889,"x_min":0,"x_max":0,"o":"m 183 627 b 135 762 156 670 135 712 b 407 976 135 914 276 976 b 677 762 537 976 677 914 b 528 547 677 657 625 602 l 469 517 l 654 258 b 679 375 670 286 679 322 l 829 375 b 764 104 830 204 807 154 l 813 36 l 683 -61 l 617 28 b 420 -6 576 5 522 -6 b 62 296 215 -6 62 93 b 190 548 62 392 95 487 l 227 567 m 432 671 b 500 762 471 691 500 714 b 407 835 500 817 459 835 b 313 762 354 835 313 817 b 331 704 313 738 323 716 l 375 643 m 286 409 b 240 296 252 385 240 341 b 417 145 240 190 309 145 b 510 173 456 145 488 154 l 324 433 "},"":{"ha":85,"x_min":0,"x_max":0,"o":""},"^":{"ha":850,"x_min":0,"x_max":0,"o":"m 604 473 l 426 764 l 244 473 l 52 473 l 369 976 l 481 976 l 798 473 "},"@":{"ha":835,"x_min":0,"x_max":0,"o":"m 68 527 b 424 853 68 731 243 853 b 779 527 611 853 779 731 l 779 331 b 614 145 779 201 721 146 l 504 145 l 498 172 b 368 141 464 152 408 141 b 231 280 252 141 231 224 b 422 422 231 404 318 422 b 493 417 444 422 471 420 l 493 443 b 420 511 493 497 462 511 b 279 476 379 511 331 500 l 252 551 b 425 591 310 577 368 591 b 600 433 521 591 600 552 l 600 234 b 667 331 651 235 667 260 l 667 527 b 424 743 667 665 554 743 b 178 527 297 743 178 665 l 178 204 b 424 -18 178 67 295 -18 b 561 22 474 -18 521 -3 l 602 -85 b 424 -128 548 -111 485 -128 b 67 204 241 -128 67 1 m 492 340 b 421 346 471 343 443 346 b 336 280 369 346 336 341 b 394 231 336 255 345 231 b 492 253 423 231 462 238 "},"|":{"ha":308,"x_min":0,"x_max":0,"o":"m 72 -236 l 72 972 l 242 972 l 242 -236 "},"¦":{"ha":308,"x_min":0,"x_max":0,"o":"m 72 423 l 72 972 l 242 972 l 242 423 m 72 -236 l 72 313 l 242 313 l 242 -236 "},"©":{"ha":1064,"x_min":0,"x_max":0,"o":"m 532 956 b 1000 487 789 956 1000 747 b 532 19 1000 230 789 19 b 63 487 273 19 63 230 b 532 956 63 747 273 956 m 532 835 b 185 487 338 835 185 683 b 532 141 185 295 338 141 b 879 487 725 141 879 295 b 532 835 879 683 725 835 m 692 262 b 527 216 618 216 533 216 b 324 488 344 216 324 353 b 527 758 324 622 344 758 b 692 712 533 758 618 758 l 653 613 b 527 653 589 653 532 653 b 432 488 438 653 432 584 b 527 322 432 392 438 322 b 653 361 531 322 589 322 "},"†":{"ha":508,"x_min":0,"x_max":0,"o":"m 472 694 l 472 550 l 338 550 l 338 -212 l 165 -212 l 165 550 l 37 550 l 37 694 l 165 694 l 165 925 l 338 925 l 338 694 "},"‡":{"ha":510,"x_min":0,"x_max":0,"o":"m 473 694 l 473 550 l 339 550 l 339 163 l 473 163 l 473 18 l 339 18 l 339 -213 l 166 -213 l 166 18 l 38 18 l 38 163 l 166 163 l 166 550 l 38 550 l 38 694 l 166 694 l 166 925 l 339 925 l 339 694 "},"°":{"ha":549,"x_min":0,"x_max":0,"o":"m 64 783 b 274 987 64 913 166 987 b 484 783 382 987 484 913 l 484 773 b 274 565 484 644 384 565 b 64 773 165 565 64 644 m 358 783 b 274 864 358 834 318 864 b 191 783 231 864 191 834 l 191 773 b 274 689 191 721 230 689 b 358 773 318 689 358 721 "},"¶":{"ha":819,"x_min":0,"x_max":0,"o":"m 708 827 l 708 -226 l 540 -226 l 540 827 l 448 827 l 448 -226 l 279 -226 l 279 422 l 228 422 b 51 615 123 422 51 503 l 51 779 b 256 971 51 896 144 971 l 757 971 l 757 827 "},"®":{"ha":1064,"x_min":0,"x_max":0,"o":"m 532 956 b 1000 487 789 956 1000 747 b 532 19 1000 230 789 19 b 63 487 273 19 63 230 b 532 956 63 747 273 956 m 532 835 b 185 487 339 835 185 681 b 532 141 185 296 339 141 b 879 487 723 141 879 296 b 532 835 879 681 723 835 m 547 731 b 702 573 652 731 702 663 b 615 434 702 508 675 454 l 733 250 l 616 250 l 512 417 l 446 417 l 446 250 l 348 250 l 348 731 m 446 513 l 547 513 b 603 573 586 513 603 538 b 547 634 603 610 586 634 l 446 634 "},"§":{"ha":700,"x_min":0,"x_max":0,"o":"m 92 38 b 344 -10 218 3 280 -9 b 472 67 408 -10 472 -3 b 305 170 472 137 399 143 b 70 378 200 200 70 233 b 138 508 70 424 86 471 b 70 633 97 538 70 573 b 362 839 70 735 132 839 b 626 782 426 839 534 824 l 574 643 b 346 702 482 685 390 702 b 242 640 260 702 242 672 b 382 557 242 596 288 584 b 645 323 498 524 645 493 b 595 194 645 266 627 228 b 645 67 627 161 645 123 b 344 -154 645 -132 465 -154 b 53 -101 254 -154 177 -136 m 306 441 b 236 380 253 434 236 408 b 345 299 236 335 274 321 b 442 267 373 291 416 279 b 477 331 462 277 477 297 b 340 431 477 399 408 411 "},"™":{"ha":1192,"x_min":0,"x_max":0,"o":"m 345 865 l 345 400 l 211 400 l 211 865 l 59 865 l 59 972 l 496 972 l 496 865 m 986 400 l 975 687 l 875 499 l 799 499 l 697 687 l 687 400 l 553 400 l 573 972 l 690 972 l 836 696 l 983 972 l 1100 972 l 1120 400 "},"´":{"ha":386,"x_min":0,"x_max":0,"o":"m 51 876 l 183 1042 l 347 1042 l 181 876 "},"˘":{"ha":547,"x_min":0,"x_max":0,"o":"m 477 1042 b 287 855 477 907 389 855 l 262 855 b 72 1042 159 855 72 907 l 191 1042 b 262 963 191 986 230 963 l 287 963 b 357 1042 318 963 357 986 "},"ˇ":{"ha":457,"x_min":0,"x_max":0,"o":"m 189 876 l 57 1042 l 177 1042 l 229 989 l 280 1042 l 401 1042 l 268 876 "},"¸":{"ha":408,"x_min":0,"x_max":0,"o":"m 248 -46 b 345 -149 325 -46 345 -103 b 60 -274 345 -269 268 -274 l 60 -203 b 238 -149 204 -203 238 -201 b 189 -112 238 -131 230 -112 l 141 -112 l 141 7 l 220 7 l 220 -46 "},"ˆ":{"ha":464,"x_min":0,"x_max":0,"o":"m 283 876 l 232 928 l 180 876 l 60 876 l 192 1042 l 271 1042 l 404 876 "},"¨":{"ha":522,"x_min":0,"x_max":0,"o":"m 85 888 l 85 1024 l 221 1024 l 221 888 m 301 888 l 301 1024 l 437 1024 l 437 888 "},"˙":{"ha":303,"x_min":0,"x_max":0,"o":"m 85 888 l 85 1024 l 222 1024 l 222 888 "},"`":{"ha":388,"x_min":0,"x_max":0,"o":"m 207 876 l 39 1042 l 203 1042 l 336 876 "},"˝":{"ha":669,"x_min":0,"x_max":0,"o":"m 67 876 l 199 1042 l 363 1042 l 197 876 m 313 876 l 445 1042 l 609 1042 l 443 876 "},"¯":{"ha":607,"x_min":0,"x_max":0,"o":"m 85 889 l 85 1024 l 522 1024 l 522 889 "},"˛":{"ha":375,"x_min":0,"x_max":0,"o":"m 233 -42 b 158 -82 167 -42 158 -61 b 324 -190 158 -162 187 -190 l 324 -274 b 71 -101 114 -274 71 -228 b 233 0 71 -31 103 0 "},"˚":{"ha":456,"x_min":0,"x_max":0,"o":"m 228 1052 b 386 893 317 1052 386 981 b 228 736 386 805 317 736 b 71 893 139 736 71 805 b 228 1052 71 981 139 1052 m 228 950 b 172 893 198 950 172 925 b 228 838 172 863 198 838 b 284 893 260 838 284 863 b 228 950 284 925 260 950 "},"˜":{"ha":521,"x_min":0,"x_max":0,"o":"m 70 900 b 190 1044 90 965 120 1044 b 235 1030 207 1044 222 1037 l 274 1005 b 305 995 284 999 295 995 b 345 1043 328 995 341 1024 l 452 1020 b 339 870 442 971 406 870 b 284 884 319 870 301 876 l 239 911 b 216 919 234 914 223 919 b 175 866 197 919 186 896 "},"̭":{"ha":0,"x_min":0,"x_max":0,"o":"m 285 -250 l 233 -197 l 182 -250 l 62 -250 l 194 -83 l 273 -83 l 406 -250 "},"̦":{"ha":0,"x_min":0,"x_max":0,"o":"m 206 -197 b 55 -311 206 -274 132 -317 l 55 -228 b 78 -197 70 -221 78 -214 l 78 -86 l 206 -86 "},"̣":{"ha":0,"x_min":0,"x_max":0,"o":"m 82 -250 l 82 -114 l 220 -114 l 220 -250 "},"̱":{"ha":0,"x_min":0,"x_max":0,"o":"m 85 -256 l 85 -121 l 522 -121 l 522 -256 "}}}
